Marhey-Light.ufo
<glyph name="numbersign" format="2">
	<advance width="778"/>
	<unicode hex="0023"/>
	<outline>
		<contour>
			<point x="147" y="9" type="curve"/>
			<point x="218" y="20" type="line"/>
			<point x="278" y="260"/>
			<point x="323" y="500"/>
			<point x="349" y="740" type="curve"/>
			<point x="252" y="728" type="line"/>
			<point x="234" y="488"/>
			<point x="199" y="249"/>
		</contour>
		<contour>
			<point x="700" y="217" type="curve"/>
			<point x="692" y="285" type="line"/>
			<point x="480" y="299"/>
			<point x="251" y="306"/>
			<point x="45" y="303" type="curve"/>
			<point x="66" y="227" type="line"/>
			<point x="268" y="232"/>
			<point x="494" y="229"/>
		</contour>
		<contour>
			<point x="733" y="481" type="curve"/>
			<point x="718" y="551" type="line"/>
			<point x="514" y="547"/>
			<point x="288" y="550"/>
			<point x="79" y="560" type="curve"/>
			<point x="89" y="501" type="line"/>
			<point x="299" y="487"/>
			<point x="528" y="480"/>
		</contour>
		<contour>
			<point x="459" y="25" type="curve"/>
			<point x="547" y="47" type="line"/>
			<point x="565" y="284"/>
			<point x="600" y="522"/>
			<point x="652" y="759" type="curve"/>
			<point x="571" y="750" type="line"/>
			<point x="513" y="508"/>
			<point x="482" y="267"/>
		</contour>
	</outline>
</glyph>
<glyph name="dollar" format="2">
	<advance width="651"/>
	<unicode hex="0024"/>
	<outline>
		<contour>
			<point x="277" y="-123" type="line"/>
			<point x="356" y="-106" type="line"/>
			<point x="350" y="32" type="line"/>
			<point x="291" y="21" type="line"/>
		</contour>
		<contour>
			<point x="298" y="721" type="line"/>
			<point x="357" y="732" type="line"/>
			<point x="371" y="846" type="line"/>
			<point x="292" y="829" type="line"/>
		</contour>
		<contour>
			<point x="332" y="-11" type="curve" smooth="yes"/>
			<point x="496" y="-11"/>
			<point x="606" y="64"/>
			<point x="606" y="212" type="curve" smooth="yes"/>
			<point x="606" y="450"/>
			<point x="185" y="371"/>
			<point x="185" y="603" type="curve" smooth="yes"/>
			<point x="185" y="676"/>
			<point x="252" y="708"/>
			<point x="340" y="708" type="curve" smooth="yes"/>
			<point x="395" y="708"/>
			<point x="474" y="684"/>
			<point x="540" y="633" type="curve"/>
			<point x="559" y="701" type="line"/>
			<point x="509" y="744"/>
			<point x="425" y="768"/>
			<point x="343" y="768" type="curve" smooth="yes"/>
			<point x="212" y="768"/>
			<point x="82" y="708"/>
			<point x="82" y="570" type="curve" smooth="yes"/>
			<point x="82" y="371"/>
			<point x="496" y="381"/>
			<point x="496" y="207" type="curve" smooth="yes"/>
			<point x="496" y="107"/>
			<point x="401" y="50"/>
			<point x="320" y="50" type="curve" smooth="yes"/>
			<point x="252" y="50"/>
			<point x="187" y="54"/>
			<point x="68" y="114" type="curve"/>
			<point x="45" y="40" type="line"/>
			<point x="145" y="8"/>
			<point x="244" y="-11"/>
		</contour>
	</outline>
</glyph>
<glyph name="percent" format="2">
	<advance width="840"/>
	<unicode hex="0025"/>
	<outline>
		<contour>
			<point x="181" y="369" type="curve" smooth="yes"/>
			<point x="249" y="369"/>
			<point x="321" y="433"/>
			<point x="321" y="561" type="curve" smooth="yes"/>
			<point x="321" y="689"/>
			<point x="249" y="754"/>
			<point x="183" y="754" type="curve" smooth="yes"/>
			<point x="116" y="754"/>
			<point x="45" y="690"/>
			<point x="45" y="559" type="curve" smooth="yes"/>
			<point x="45" y="432"/>
			<point x="115" y="369"/>
		</contour>
		<contour>
			<point x="181" y="444" type="curve" smooth="yes"/>
			<point x="140" y="444"/>
			<point x="111" y="483"/>
			<point x="111" y="569" type="curve" smooth="yes"/>
			<point x="111" y="648"/>
			<point x="136" y="691"/>
			<point x="183" y="691" type="curve" smooth="yes"/>
			<point x="231" y="691"/>
			<point x="259" y="649"/>
			<point x="259" y="570" type="curve" smooth="yes"/>
			<point x="259" y="489"/>
			<point x="228" y="444"/>
		</contour>
		<contour>
			<point x="260" y="-16" type="line"/>
			<point x="667" y="816" type="line"/>
			<point x="622" y="846" type="line"/>
			<point x="208" y="24" type="line"/>
		</contour>
		<contour>
			<point x="656" y="-6" type="curve" smooth="yes"/>
			<point x="724" y="-6"/>
			<point x="796" y="58"/>
			<point x="796" y="186" type="curve" smooth="yes"/>
			<point x="796" y="314"/>
			<point x="724" y="379"/>
			<point x="658" y="379" type="curve" smooth="yes"/>
			<point x="591" y="379"/>
			<point x="520" y="315"/>
			<point x="520" y="184" type="curve" smooth="yes"/>
			<point x="520" y="57"/>
			<point x="590" y="-6"/>
		</contour>
		<contour>
			<point x="656" y="68" type="curve" smooth="yes"/>
			<point x="615" y="68"/>
			<point x="586" y="109"/>
			<point x="586" y="194" type="curve" smooth="yes"/>
			<point x="586" y="274"/>
			<point x="610" y="317"/>
			<point x="657" y="317" type="curve" smooth="yes"/>
			<point x="707" y="317"/>
			<point x="734" y="274"/>
			<point x="734" y="195" type="curve" smooth="yes"/>
			<point x="734" y="113"/>
			<point x="703" y="68"/>
		</contour>
	</outline>
</glyph>
<glyph name="asterisk" format="2">
	<advance width="576"/>
	<unicode hex="002A"/>
	<outline>
		<contour>
			<point x="273" y="540" type="curve"/>
			<point x="309" y="551" type="line"/>
			<point x="309" y="635"/>
			<point x="319" y="704"/>
			<point x="347" y="759" type="curve"/>
			<point x="257" y="773" type="line"/>
			<point x="249" y="684"/>
			<point x="253" y="629"/>
		</contour>
		<contour>
			<point x="280" y="561" type="curve"/>
			<point x="301" y="530" type="line"/>
			<point x="381" y="556"/>
			<point x="450" y="568"/>
			<point x="511" y="558" type="curve"/>
			<point x="496" y="648" type="line"/>
			<point x="409" y="628"/>
			<point x="358" y="607"/>
		</contour>
		<contour>
			<point x="303" y="561" type="curve"/>
			<point x="280" y="532" type="line"/>
			<point x="330" y="464"/>
			<point x="362" y="402"/>
			<point x="372" y="341" type="curve"/>
			<point x="453" y="383" type="line"/>
			<point x="407" y="459"/>
			<point x="371" y="501"/>
		</contour>
		<contour>
			<point x="308" y="539" type="curve"/>
			<point x="273" y="552" type="line"/>
			<point x="224" y="484"/>
			<point x="175" y="434"/>
			<point x="120" y="406" type="curve"/>
			<point x="185" y="342" type="line"/>
			<point x="243" y="409"/>
			<point x="272" y="456"/>
		</contour>
		<contour>
			<point x="290" y="529" type="curve"/>
			<point x="292" y="567" type="line"/>
			<point x="212" y="592"/>
			<point x="149" y="624"/>
			<point x="106" y="667" type="curve"/>
			<point x="65" y="586" type="line"/>
			<point x="147" y="551"/>
			<point x="200" y="538"/>
		</contour>
	</outline>
</glyph>
<glyph name="zero" format="2">
	<advance width="682"/>
	<unicode hex="0030"/>
	<guideline x="-44" y="502" angle="0"/>
	<guideline x="-46" y="148" angle="0"/>
	<outline>
		<contour>
			<point x="338" y="-13" type="curve" smooth="yes"/>
			<point x="474" y="-13"/>
			<point x="617" y="116"/>
			<point x="617" y="372" type="curve" smooth="yes"/>
			<point x="617" y="628"/>
			<point x="474" y="758"/>
			<point x="341" y="758" type="curve" smooth="yes"/>
			<point x="207" y="758"/>
			<point x="65" y="629"/>
			<point x="65" y="368" type="curve" smooth="yes"/>
			<point x="65" y="113"/>
			<point x="206" y="-13"/>
		</contour>
		<contour>
			<point x="336" y="70" type="curve" smooth="yes"/>
			<point x="231" y="70"/>
			<point x="158" y="171"/>
			<point x="158" y="389" type="curve" smooth="yes"/>
			<point x="158" y="590"/>
			<point x="221" y="700"/>
			<point x="340" y="700" type="curve" smooth="yes"/>
			<point x="464" y="700"/>
			<point x="534" y="592"/>
			<point x="534" y="392" type="curve" smooth="yes"/>
			<point x="534" y="185"/>
			<point x="456" y="70"/>
		</contour>
	</outline>
</glyph>
<glyph name="one" format="2">
	<advance width="534"/>
	<unicode hex="0031"/>
	<guideline x="171" y="502" angle="0"/>
	<guideline x="169" y="148" angle="0"/>
	<outline>
		<contour>
			<point x="257" y="12" type="curve"/>
			<point x="329" y="41" type="line"/>
			<point x="344" y="277"/>
			<point x="350" y="503"/>
			<point x="347" y="750" type="curve"/>
			<point x="258" y="742" type="line"/>
			<point x="243" y="675" type="line"/>
			<point x="257" y="495"/>
			<point x="258" y="8"/>
		</contour>
		<contour>
			<point x="474" y="-39" type="curve"/>
			<point x="489" y="46" type="line"/>
			<point x="379" y="92"/>
			<point x="185" y="79"/>
			<point x="53" y="40" type="curve"/>
			<point x="63" y="-12" type="line"/>
			<point x="158" y="5"/>
			<point x="323" y="10"/>
		</contour>
		<contour>
			<point x="59" y="536" type="line"/>
			<point x="308" y="701" type="line"/>
			<point x="258" y="742" type="line"/>
			<point x="45" y="612" type="line"/>
		</contour>
	</outline>
</glyph>
<glyph name="two" format="2">
	<advance width="635"/>
	<unicode hex="0032"/>
	<outline>
		<contour>
			<point x="45" y="30" type="curve"/>
			<point x="116" y="21" type="line"/>
			<point x="412" y="265"/>
			<point x="557" y="399"/>
			<point x="557" y="525" type="curve" smooth="yes"/>
			<point x="557" y="666"/>
			<point x="454" y="708"/>
			<point x="324" y="708" type="curve" smooth="yes"/>
			<point x="259" y="708"/>
			<point x="176" y="692"/>
			<point x="97" y="667" type="curve"/>
			<point x="125" y="568" type="line"/>
			<point x="206" y="617"/>
			<point x="255" y="640"/>
			<point x="315" y="640" type="curve" smooth="yes"/>
			<point x="381" y="640"/>
			<point x="458" y="615"/>
			<point x="458" y="530" type="curve" smooth="yes"/>
			<point x="458" y="399"/>
			<point x="241" y="195"/>
		</contour>
		<contour>
			<point x="570" y="-32" type="curve"/>
			<point x="590" y="59" type="line"/>
			<point x="453" y="78"/>
			<point x="192" y="95"/>
			<point x="45" y="30" type="curve"/>
			<point x="57" y="-12" type="line"/>
			<point x="201" y="10"/>
			<point x="410" y="0"/>
		</contour>
	</outline>
</glyph>
<glyph name="five" format="2">
	<advance width="607"/>
	<unicode hex="0035"/>
	<outline>
		<contour>
			<point x="217" y="-17" type="curve" smooth="yes"/>
			<point x="380" y="-17"/>
			<point x="542" y="37"/>
			<point x="542" y="210" type="curve" smooth="yes"/>
			<point x="542" y="413"/>
			<point x="332" y="448"/>
			<point x="153" y="400" type="curve"/>
			<point x="118" y="344" type="line"/>
			<point x="260" y="375"/>
			<point x="464" y="351"/>
			<point x="464" y="202" type="curve" smooth="yes"/>
			<point x="464" y="89"/>
			<point x="334" y="61"/>
			<point x="232" y="61" type="curve" smooth="yes"/>
			<point x="191" y="61"/>
			<point x="115" y="71"/>
			<point x="51" y="82" type="curve"/>
			<point x="45" y="8" type="line"/>
			<point x="104" y="-7"/>
			<point x="175" y="-17"/>
		</contour>
		<contour>
			<point x="85" y="337" type="curve"/>
			<point x="168" y="353" type="line"/>
			<point x="136" y="502"/>
			<point x="129" y="502"/>
			<point x="129" y="659" type="curve"/>
			<point x="58" y="680" type="line"/>
			<point x="46" y="611"/>
			<point x="59" y="445"/>
		</contour>
		<contour>
			<point x="487" y="617" type="curve"/>
			<point x="463" y="707" type="line"/>
			<point x="319" y="668"/>
			<point x="203" y="657"/>
			<point x="58" y="680" type="curve"/>
			<point x="58" y="633" type="line"/>
			<point x="252" y="589"/>
			<point x="322" y="602"/>
		</contour>
	</outline>
</glyph>
<glyph name="six" format="2">
	<advance width="654"/>
	<unicode hex="0036"/>
	<outline>
		<contour>
			<point x="331" y="-10" type="curve" smooth="yes"/>
			<point x="519" y="-10"/>
			<point x="610" y="124"/>
			<point x="609" y="249" type="curve" smooth="yes"/>
			<point x="608" y="357"/>
			<point x="521" y="459"/>
			<point x="352" y="459" type="curve" smooth="yes"/>
			<point x="285" y="459"/>
			<point x="213" y="440"/>
			<point x="150" y="403" type="curve"/>
			<point x="137" y="294" type="line"/>
			<point x="191" y="367"/>
			<point x="268" y="403"/>
			<point x="340" y="403" type="curve" smooth="yes"/>
			<point x="461" y="403"/>
			<point x="521" y="324"/>
			<point x="521" y="241" type="curve" smooth="yes"/>
			<point x="521" y="148"/>
			<point x="460" y="50"/>
			<point x="343" y="50" type="curve" smooth="yes"/>
			<point x="211" y="50"/>
			<point x="164" y="141"/>
			<point x="163" y="259" type="curve" smooth="yes"/>
			<point x="162" y="399"/>
			<point x="266" y="578"/>
			<point x="419" y="688" type="curve"/>
			<point x="366" y="710" type="line"/>
			<point x="148" y="564"/>
			<point x="65" y="377"/>
			<point x="65" y="254" type="curve" smooth="yes"/>
			<point x="65" y="80"/>
			<point x="197" y="-10"/>
		</contour>
	</outline>
</glyph>
<glyph name="seven" format="2">
	<advance width="593"/>
	<unicode hex="0037"/>
	<outline>
		<contour>
			<point x="149" y="-11" type="curve"/>
			<point x="260" y="1" type="line"/>
			<point x="286" y="143"/>
			<point x="377" y="326"/>
			<point x="548" y="637" type="curve"/>
			<point x="511" y="658" type="line"/>
			<point x="275" y="304"/>
			<point x="182" y="135"/>
		</contour>
		<contour>
			<point x="64" y="709" type="curve"/>
			<point x="45" y="602" type="line"/>
			<point x="195" y="591"/>
			<point x="365" y="582"/>
			<point x="548" y="637" type="curve"/>
			<point x="540" y="682" type="line"/>
			<point x="420" y="664"/>
			<point x="240" y="662"/>
		</contour>
	</outline>
</glyph>
<glyph name="eight" format="2">
	<advance width="674"/>
	<unicode hex="0038"/>
	<outline>
		<contour>
			<point x="323" y="-10" type="curve" smooth="yes"/>
			<point x="464" y="-10"/>
			<point x="609" y="64"/>
			<point x="609" y="205" type="curve" smooth="yes"/>
			<point x="609" y="336"/>
			<point x="470" y="408"/>
			<point x="334" y="408" type="curve" smooth="yes"/>
			<point x="198" y="408"/>
			<point x="65" y="339"/>
			<point x="65" y="194" type="curve" smooth="yes"/>
			<point x="65" y="56"/>
			<point x="193" y="-10"/>
		</contour>
		<contour>
			<point x="336" y="43" type="curve" smooth="yes"/>
			<point x="241" y="43"/>
			<point x="152" y="90"/>
			<point x="152" y="188" type="curve" smooth="yes"/>
			<point x="152" y="295"/>
			<point x="241" y="347"/>
			<point x="336" y="347" type="curve" smooth="yes"/>
			<point x="431" y="347"/>
			<point x="529" y="292"/>
			<point x="529" y="187" type="curve" smooth="yes"/>
			<point x="529" y="94"/>
			<point x="431" y="43"/>
		</contour>
		<contour>
			<point x="322" y="359" type="curve" smooth="yes"/>
			<point x="448" y="359"/>
			<point x="579" y="421"/>
			<point x="579" y="536" type="curve" smooth="yes"/>
			<point x="579" y="645"/>
			<point x="453" y="704"/>
			<point x="327" y="704" type="curve" smooth="yes"/>
			<point x="205" y="704"/>
			<point x="85" y="648"/>
			<point x="85" y="528" type="curve" smooth="yes"/>
			<point x="85" y="414"/>
			<point x="201" y="359"/>
		</contour>
		<contour>
			<point x="330" y="408" type="curve" smooth="yes"/>
			<point x="248" y="408"/>
			<point x="171" y="447"/>
			<point x="171" y="533" type="curve" smooth="yes"/>
			<point x="171" y="606"/>
			<point x="251" y="654"/>
			<point x="332" y="654" type="curve" smooth="yes"/>
			<point x="416" y="654"/>
			<point x="500" y="613"/>
			<point x="500" y="531" type="curve" smooth="yes"/>
			<point x="500" y="453"/>
			<point x="414" y="408"/>
		</contour>
	</outline>
</glyph>
<glyph name="nine" format="2">
	<advance width="654"/>
	<unicode hex="0039"/>
	<outline>
		<contour>
			<point x="235" y="12" type="curve"/>
			<point x="288" y="-10" type="line"/>
			<point x="506" y="136"/>
			<point x="589" y="323"/>
			<point x="589" y="446" type="curve" smooth="yes"/>
			<point x="589" y="620"/>
			<point x="457" y="710"/>
			<point x="323" y="710" type="curve" smooth="yes"/>
			<point x="135" y="710"/>
			<point x="44" y="576"/>
			<point x="45" y="451" type="curve" smooth="yes"/>
			<point x="46" y="343"/>
			<point x="133" y="241"/>
			<point x="302" y="241" type="curve" smooth="yes"/>
			<point x="369" y="241"/>
			<point x="441" y="260"/>
			<point x="504" y="297" type="curve"/>
			<point x="517" y="406" type="line"/>
			<point x="463" y="333"/>
			<point x="386" y="297"/>
			<point x="314" y="297" type="curve" smooth="yes"/>
			<point x="193" y="297"/>
			<point x="133" y="376"/>
			<point x="133" y="459" type="curve" smooth="yes"/>
			<point x="133" y="552"/>
			<point x="194" y="650"/>
			<point x="311" y="650" type="curve" smooth="yes"/>
			<point x="443" y="650"/>
			<point x="490" y="559"/>
			<point x="491" y="441" type="curve" smooth="yes"/>
			<point x="492" y="301"/>
			<point x="388" y="122"/>
		</contour>
	</outline>
</glyph>
<glyph name="equal" format="2">
	<advance width="452"/>
	<unicode hex="003D"/>
	<outline>
		<contour>
			<point x="407" y="208" type="curve"/>
			<point x="405" y="305" type="line"/>
			<point x="297" y="306"/>
			<point x="171" y="303"/>
			<point x="63" y="294" type="curve"/>
			<point x="62" y="220" type="line"/>
			<point x="172" y="221"/>
			<point x="297" y="217"/>
		</contour>
		<contour>
			<point x="48" y="505" type="curve"/>
			<point x="45" y="408" type="line"/>
			<point x="155" y="417"/>
			<point x="280" y="421"/>
			<point x="390" y="420" type="curve"/>
			<point x="389" y="494" type="line"/>
			<point x="281" y="503"/>
			<point x="155" y="506"/>
		</contour>
	</outline>
</glyph>
<glyph name="C" format="2">
	<advance width="673"/>
	<unicode hex="0043"/>
	<guideline x="19" y="497" angle="0"/>
	<guideline x="19" y="165" angle="0"/>
	<anchor x="434" y="-2" name="bottom"/>
	<anchor x="454" y="28" name="cedilla"/>
	<anchor x="460" y="800" name="top"/>
	<outline>
		<contour>
			<point x="412" y="-2" type="curve" smooth="yes"/>
			<point x="477" y="-2"/>
			<point x="543" y="9"/>
			<point x="604" y="46" type="curve"/>
			<point x="603" y="109" type="line"/>
			<point x="543" y="78"/>
			<point x="490" y="64"/>
			<point x="409" y="64" type="curve" smooth="yes"/>
			<point x="287" y="64"/>
			<point x="165" y="164"/>
			<point x="165" y="353" type="curve" smooth="yes"/>
			<point x="165" y="539"/>
			<point x="292" y="661"/>
			<point x="446" y="661" type="curve" smooth="yes"/>
			<point x="501" y="661"/>
			<point x="560" y="650"/>
			<point x="617" y="622" type="curve"/>
			<point x="628" y="700" type="line"/>
			<point x="579" y="731"/>
			<point x="512" y="748"/>
			<point x="441" y="748" type="curve" smooth="yes"/>
			<point x="264" y="748"/>
			<point x="65" y="638"/>
			<point x="65" y="356" type="curve" smooth="yes"/>
			<point x="65" y="138"/>
			<point x="231" y="-2"/>
		</contour>
	</outline>
</glyph>
<glyph name="H" format="2">
	<advance width="815"/>
	<unicode hex="0048"/>
	<guideline x="-59" y="229" angle="0.8249"/>
	<outline>
		<contour>
			<point x="118" y="-9" type="curve"/>
			<point x="201" y="7" type="line"/>
			<point x="218" y="232"/>
			<point x="220" y="517"/>
			<point x="205" y="757" type="curve"/>
			<point x="95" y="734" type="line"/>
			<point x="124" y="472"/>
			<point x="126" y="258"/>
		</contour>
		<contour>
			<point x="702" y="338" type="curve"/>
			<point x="671" y="424" type="line"/>
			<point x="531" y="368"/>
			<point x="246" y="378"/>
			<point x="145" y="392" type="curve"/>
			<point x="138" y="332" type="line"/>
			<point x="271" y="312"/>
			<point x="543" y="309"/>
		</contour>
		<contour>
			<point x="623" y="-9" type="curve"/>
			<point x="706" y="7" type="line"/>
			<point x="723" y="232"/>
			<point x="725" y="517"/>
			<point x="710" y="757" type="curve"/>
			<point x="600" y="734" type="line"/>
			<point x="630" y="472"/>
			<point x="631" y="258"/>
		</contour>
	</outline>
</glyph>
<glyph name="L" format="2">
	<advance width="576"/>
	<unicode hex="004C"/>
	<anchor x="345" y="-30" name="bottom"/>
	<anchor x="307" y="325" name="center"/>
	<anchor x="205" y="800" name="top"/>
	<anchor x="440" y="720" name="topright"/>
	<outline>
		<contour>
			<point x="115" y="15" type="curve"/>
			<point x="205" y="28" type="line"/>
			<point x="216" y="280"/>
			<point x="225" y="470"/>
			<point x="205" y="754" type="curve"/>
			<point x="95" y="745" type="line"/>
			<point x="132" y="495"/>
			<point x="128" y="235"/>
		</contour>
		<contour>
			<point x="531" y="15" type="curve"/>
			<point x="521" y="103" type="line"/>
			<point x="378" y="66"/>
			<point x="257" y="49"/>
			<point x="159" y="69" type="curve"/>
			<point x="115" y="15" type="line"/>
			<point x="283" y="-14"/>
			<point x="416" y="7"/>
		</contour>
	</outline>
</glyph>
<glyph name="M" format="2">
	<advance width="1180"/>
	<unicode hex="004D"/>
	<outline>
		<contour>
			<point x="118" y="-8" type="curve"/>
			<point x="201" y="7" type="line"/>
			<point x="218" y="232"/>
			<point x="222" y="515"/>
			<point x="207" y="755" type="curve"/>
			<point x="95" y="734" type="line"/>
			<point x="126" y="475"/>
			<point x="126" y="259"/>
		</contour>
		<contour>
			<point x="520" y="-5" type="curve"/>
			<point x="626" y="13" type="line"/>
			<point x="638" y="426"/>
			<point x="620" y="760"/>
			<point x="416" y="760" type="curve" smooth="yes"/>
			<point x="283" y="760"/>
			<point x="191" y="647"/>
			<point x="149" y="229" type="curve"/>
			<point x="212" y="228" type="line"/>
			<point x="218" y="498"/>
			<point x="303" y="680"/>
			<point x="389" y="680" type="curve" smooth="yes"/>
			<point x="527" y="680"/>
			<point x="546" y="282"/>
		</contour>
		<contour>
			<point x="973" y="-2" type="curve"/>
			<point x="1081" y="14" type="line"/>
			<point x="1100" y="381"/>
			<point x="1048" y="766"/>
			<point x="836" y="766" type="curve" smooth="yes"/>
			<point x="647" y="766"/>
			<point x="591" y="369"/>
			<point x="588" y="173" type="curve"/>
			<point x="626" y="13" type="line"/>
			<point x="646" y="394"/>
			<point x="710" y="680"/>
			<point x="823" y="680" type="curve" smooth="yes"/>
			<point x="945" y="680"/>
			<point x="1004" y="350"/>
		</contour>
	</outline>
</glyph>
<glyph name="P" format="2">
	<advance width="696"/>
	<unicode hex="0050"/>
	<outline>
		<contour>
			<point x="118" y="-4" type="curve"/>
			<point x="212" y="0" type="line"/>
			<point x="219" y="255"/>
			<point x="220" y="461"/>
			<point x="205" y="748" type="curve"/>
			<point x="95" y="730" type="line"/>
			<point x="119" y="536"/>
			<point x="127" y="259"/>
		</contour>
		<contour>
			<point x="160" y="259" type="curve"/>
			<point x="193" y="207" type="line"/>
			<point x="508" y="305"/>
			<point x="631" y="436"/>
			<point x="631" y="599" type="curve" smooth="yes"/>
			<point x="631" y="712"/>
			<point x="570" y="798"/>
			<point x="460" y="798" type="curve" smooth="yes"/>
			<point x="370" y="798"/>
			<point x="222" y="722"/>
			<point x="168" y="539" type="curve"/>
			<point x="193" y="468" type="line"/>
			<point x="230" y="622"/>
			<point x="345" y="688"/>
			<point x="425" y="688" type="curve" smooth="yes"/>
			<point x="503" y="688"/>
			<point x="531" y="631"/>
			<point x="531" y="575" type="curve" smooth="yes"/>
			<point x="531" y="465"/>
			<point x="445" y="350"/>
		</contour>
	</outline>
</glyph>
<glyph name="R" format="2">
	<advance width="690"/>
	<unicode hex="0052"/>
	<anchor x="336" y="0" name="bottom"/>
	<anchor x="338" y="800" name="top"/>
	<outline>
		<contour>
			<point x="160" y="285" type="curve"/>
			<point x="193" y="237" type="line"/>
			<point x="508" y="335"/>
			<point x="631" y="456"/>
			<point x="631" y="619" type="curve" smooth="yes"/>
			<point x="631" y="712"/>
			<point x="570" y="788"/>
			<point x="460" y="788" type="curve" smooth="yes"/>
			<point x="370" y="788"/>
			<point x="222" y="722"/>
			<point x="168" y="539" type="curve"/>
			<point x="193" y="478" type="line"/>
			<point x="230" y="632"/>
			<point x="345" y="703"/>
			<point x="425" y="703" type="curve" smooth="yes"/>
			<point x="503" y="703"/>
			<point x="531" y="631"/>
			<point x="531" y="575" type="curve" smooth="yes"/>
			<point x="531" y="478"/>
			<point x="445" y="376"/>
		</contour>
		<contour>
			<point x="118" y="-4" type="curve"/>
			<point x="212" y="0" type="line"/>
			<point x="219" y="255"/>
			<point x="220" y="461"/>
			<point x="205" y="748" type="curve"/>
			<point x="95" y="730" type="line"/>
			<point x="119" y="536"/>
			<point x="127" y="259"/>
		</contour>
		<contour>
			<point x="547" y="-20" type="curve"/>
			<point x="655" y="-6" type="line"/>
			<point x="591" y="238"/>
			<point x="458" y="293"/>
			<point x="285" y="326" type="curve"/>
			<point x="253" y="263" type="line"/>
			<point x="405" y="251"/>
			<point x="510" y="147"/>
		</contour>
	</outline>
</glyph>
<glyph name="underscore" format="2">
	<advance width="456"/>
	<unicode hex="005F"/>
	<outline>
		<contour>
			<point x="37" y="12" type="curve"/>
			<point x="34" y="-84" type="line"/>
			<point x="163" y="-85"/>
			<point x="293" y="-80"/>
			<point x="422" y="-70" type="curve"/>
			<point x="421" y="6" type="line"/>
			<point x="293" y="2"/>
			<point x="165" y="4"/>
		</contour>
	</outline>
</glyph>
<glyph name="a" format="2">
	<advance width="581"/>
	<unicode hex="0061"/>
	<anchor x="251" y="-36" name="bottom"/>
	<anchor x="469" y="5" name="ogonek"/>
	<anchor x="353" y="520" name="top"/>
	<outline>
		<contour>
			<point x="208" y="-14" type="curve" smooth="yes"/>
			<point x="316" y="-14"/>
			<point x="440" y="82"/>
			<point x="455" y="319" type="curve"/>
			<point x="397" y="270" type="line"/>
			<point x="399" y="144"/>
			<point x="317" y="64"/>
			<point x="240" y="64" type="curve" smooth="yes"/>
			<point x="183" y="64"/>
			<point x="154" y="115"/>
			<point x="154" y="172" type="curve" smooth="yes"/>
			<point x="154" y="230"/>
			<point x="191" y="333"/>
			<point x="418" y="383" type="curve"/>
			<point x="394" y="441" type="line"/>
			<point x="137" y="367"/>
			<point x="45" y="263"/>
			<point x="45" y="150" type="curve" smooth="yes"/>
			<point x="45" y="48"/>
			<point x="121" y="-14"/>
		</contour>
		<contour>
			<point x="417" y="-10" type="curve"/>
			<point x="498" y="8" type="line"/>
			<point x="487" y="156"/>
			<point x="486" y="294"/>
			<point x="506" y="453" type="curve"/>
			<point x="394" y="441" type="line"/>
			<point x="392" y="417"/>
			<point x="392" y="128"/>
		</contour>
	</outline>
</glyph>
<glyph name="d" format="2">
	<advance width="576"/>
	<unicode hex="0064"/>
	<guideline x="349" y="350" angle="0"/>
	<guideline x="341" y="98" angle="0"/>
	<anchor x="93" y="0" name="bottom"/>
	<anchor x="208" y="260" name="center"/>
	<anchor x="429" y="800" name="top"/>
	<anchor x="600" y="750" name="topright"/>
	<outline>
		<contour>
			<point x="415" y="-5" type="curve"/>
			<point x="495" y="4" type="line"/>
			<point x="481" y="262"/>
			<point x="483" y="568"/>
			<point x="501" y="808" type="curve"/>
			<point x="397" y="790" type="line"/>
			<point x="387" y="539"/>
			<point x="387" y="272"/>
		</contour>
		<contour>
			<point x="208" y="-14" type="curve" smooth="yes"/>
			<point x="316" y="-14"/>
			<point x="440" y="82"/>
			<point x="455" y="319" type="curve"/>
			<point x="397" y="270" type="line"/>
			<point x="399" y="144"/>
			<point x="317" y="74"/>
			<point x="240" y="74" type="curve" smooth="yes"/>
			<point x="183" y="74"/>
			<point x="154" y="115"/>
			<point x="154" y="172" type="curve" smooth="yes"/>
			<point x="154" y="230"/>
			<point x="191" y="373"/>
			<point x="418" y="423" type="curve"/>
			<point x="394" y="481" type="line"/>
			<point x="137" y="407"/>
			<point x="45" y="263"/>
			<point x="45" y="150" type="curve" smooth="yes"/>
			<point x="45" y="48"/>
			<point x="121" y="-14"/>
		</contour>
	</outline>
</glyph>
<glyph name="g" format="2">
	<advance width="577"/>
	<unicode hex="0067"/>
	<guideline x="449" y="385" angle="0"/>
	<guideline x="449" y="135" angle="0"/>
	<anchor x="281" y="-337" name="bottom"/>
	<anchor x="323" y="520" name="top"/>
	<outline>
		<contour>
			<point x="99" y="-170" type="curve"/>
			<point x="72" y="-260" type="line"/>
			<point x="343" y="-311"/>
			<point x="499" y="-224"/>
			<point x="502" y="71" type="curve" smooth="yes"/>
			<point x="503" y="208"/>
			<point x="500" y="371"/>
			<point x="496" y="465" type="curve"/>
			<point x="392" y="461" type="line"/>
			<point x="417" y="227"/>
			<point x="422" y="103"/>
			<point x="427" y="-14" type="curve" smooth="yes"/>
			<point x="433" y="-149"/>
			<point x="349" y="-249"/>
		</contour>
		<contour>
			<point x="208" y="-14" type="curve" smooth="yes"/>
			<point x="316" y="-14"/>
			<point x="455" y="82"/>
			<point x="470" y="319" type="curve"/>
			<point x="412" y="270" type="line"/>
			<point x="414" y="144"/>
			<point x="317" y="74"/>
			<point x="240" y="74" type="curve" smooth="yes"/>
			<point x="183" y="74"/>
			<point x="154" y="115"/>
			<point x="154" y="172" type="curve" smooth="yes"/>
			<point x="154" y="230"/>
			<point x="189" y="353"/>
			<point x="416" y="403" type="curve"/>
			<point x="392" y="461" type="line"/>
			<point x="135" y="387"/>
			<point x="45" y="263"/>
			<point x="45" y="150" type="curve" smooth="yes"/>
			<point x="45" y="48"/>
			<point x="121" y="-14"/>
		</contour>
	</outline>
</glyph>
<glyph name="i" format="2">
	<advance width="259"/>
	<unicode hex="0069"/>
	<outline>
		<component base="dotlessi"/>
		<contour>
			<point x="68" y="525" type="curve"/>
			<point x="173" y="533" type="line"/>
			<point x="174" y="571"/>
			<point x="171" y="617"/>
			<point x="164" y="653" type="curve"/>
			<point x="54" y="639" type="line"/>
			<point x="58" y="600"/>
			<point x="66" y="567"/>
		</contour>
	</outline>
</glyph>
<glyph name="j" format="2">
	<advance width="284"/>
	<unicode hex="006A"/>
	<outline>
		<component base="uni0237"/>
		<contour>
			<point x="68" y="525" type="curve"/>
			<point x="173" y="533" type="line"/>
			<point x="174" y="571"/>
			<point x="171" y="617"/>
			<point x="164" y="653" type="curve"/>
			<point x="54" y="639" type="line"/>
			<point x="58" y="600"/>
			<point x="66" y="567"/>
		</contour>
	</outline>
</glyph>
<glyph name="n" format="2">
	<advance width="624"/>
	<unicode hex="006E"/>
	<guideline x="165" y="229" angle="0"/>
	<anchor x="320" y="0" name="bottom"/>
	<anchor x="372" y="520" name="top"/>
	<outline>
		<contour>
			<point x="442" y="3" type="curve"/>
			<point x="547" y="-8" type="line"/>
			<point x="575" y="195"/>
			<point x="565" y="466"/>
			<point x="378" y="466" type="curve" smooth="yes"/>
			<point x="215" y="466"/>
			<point x="131" y="249"/>
			<point x="120" y="125" type="curve"/>
			<point x="180" y="0" type="line"/>
			<point x="193" y="217"/>
			<point x="262" y="411"/>
			<point x="356" y="411" type="curve" smooth="yes"/>
			<point x="455" y="411"/>
			<point x="492" y="229"/>
		</contour>
		<contour>
			<point x="75" y="-10" type="curve"/>
			<point x="180" y="0" type="line"/>
			<point x="188" y="161"/>
			<point x="189" y="285"/>
			<point x="163" y="462" type="curve"/>
			<point x="81" y="446" type="line"/>
			<point x="96" y="298"/>
			<point x="95" y="141"/>
		</contour>
	</outline>
</glyph>
<glyph name="r" format="2">
	<advance width="475"/>
	<unicode hex="0072"/>
	<anchor x="143" y="-30" name="bottom"/>
	<anchor x="341" y="520" name="top"/>
	<outline>
		<contour>
			<point x="138" y="110" type="curve"/>
			<point x="180" y="-3" type="line"/>
			<point x="200" y="289"/>
			<point x="255" y="423"/>
			<point x="424" y="348" type="curve"/>
			<point x="445" y="449" type="line"/>
			<point x="294" y="517"/>
			<point x="145" y="339"/>
		</contour>
		<contour>
			<point x="75" y="-13" type="curve"/>
			<point x="180" y="-3" type="line"/>
			<point x="188" y="158"/>
			<point x="189" y="282"/>
			<point x="163" y="459" type="curve"/>
			<point x="81" y="443" type="line"/>
			<point x="96" y="295"/>
			<point x="95" y="138"/>
		</contour>
	</outline>
</glyph>
<glyph name="s" format="2">
	<advance width="458"/>
	<unicode hex="0073"/>
	<guideline x="-41" y="385" angle="0"/>
	<guideline x="-41" y="135" angle="0"/>
	<anchor x="214" y="-19" name="bottom"/>
	<anchor x="223" y="17" name="cedilla"/>
	<anchor x="227" y="520" name="top"/>
	<outline>
		<contour>
			<point x="226" y="-21" type="curve" smooth="yes"/>
			<point x="325" y="-21"/>
			<point x="413" y="10"/>
			<point x="413" y="108" type="curve" smooth="yes"/>
			<point x="413" y="258"/>
			<point x="174" y="231"/>
			<point x="174" y="345" type="curve" smooth="yes"/>
			<point x="174" y="377"/>
			<point x="195" y="402"/>
			<point x="234" y="402" type="curve" smooth="yes"/>
			<point x="274" y="402"/>
			<point x="329" y="387"/>
			<point x="366" y="347" type="curve"/>
			<point x="399" y="400" type="line"/>
			<point x="350" y="447"/>
			<point x="278" y="474"/>
			<point x="215" y="474" type="curve" smooth="yes"/>
			<point x="137" y="474"/>
			<point x="71" y="434"/>
			<point x="71" y="359" type="curve" smooth="yes"/>
			<point x="71" y="204"/>
			<point x="307" y="198"/>
			<point x="307" y="108" type="curve" smooth="yes"/>
			<point x="307" y="81"/>
			<point x="284" y="39"/>
			<point x="216" y="39" type="curve" smooth="yes"/>
			<point x="149" y="39"/>
			<point x="98" y="54"/>
			<point x="51" y="71" type="curve"/>
			<point x="45" y="7" type="line"/>
			<point x="97" y="-9"/>
			<point x="164" y="-21"/>
		</contour>
	</outline>
</glyph>
<glyph name="u" format="2">
	<advance width="624"/>
	<unicode hex="0075"/>
	<guideline x="12" y="385" angle="0"/>
	<guideline x="12" y="135" angle="0"/>
	<anchor x="321" y="-50" name="bottom"/>
	<anchor x="543" y="10" name="ogonek"/>
	<anchor x="321" y="520" name="top"/>
	<outline>
		<contour>
			<point x="246" y="-10" type="curve" smooth="yes"/>
			<point x="409" y="-10"/>
			<point x="493" y="207"/>
			<point x="504" y="331" type="curve"/>
			<point x="444" y="456" type="line"/>
			<point x="431" y="239"/>
			<point x="362" y="45"/>
			<point x="268" y="45" type="curve" smooth="yes"/>
			<point x="169" y="45"/>
			<point x="132" y="237"/>
			<point x="182" y="463" type="curve"/>
			<point x="77" y="454" type="line"/>
			<point x="49" y="251"/>
			<point x="59" y="-10"/>
		</contour>
		<contour>
			<point x="461" y="-6" type="curve"/>
			<point x="543" y="10" type="line"/>
			<point x="528" y="158"/>
			<point x="529" y="315"/>
			<point x="549" y="466" type="curve"/>
			<point x="444" y="456" type="line"/>
			<point x="436" y="295"/>
			<point x="435" y="171"/>
		</contour>
	</outline>
</glyph>
<glyph name="v" format="2">
	<advance width="596"/>
	<unicode hex="0076"/>
	<outline>
		<contour>
			<point x="290" y="-9" type="curve"/>
			<point x="345" y="0" type="line"/>
			<point x="326" y="36" type="line"/>
			<point x="289" y="163"/>
			<point x="191" y="337"/>
			<point x="121" y="465" type="curve"/>
			<point x="30" y="451" type="line"/>
			<point x="146" y="278"/>
			<point x="226" y="147"/>
		</contour>
		<contour>
			<point x="288" y="37" type="curve"/>
			<point x="345" y="0" type="line"/>
			<point x="396" y="141"/>
			<point x="490" y="320"/>
			<point x="566" y="456" type="curve"/>
			<point x="455" y="471" type="line"/>
			<point x="400" y="353"/>
			<point x="327" y="178"/>
		</contour>
	</outline>
</glyph>
<glyph name="w" format="2">
	<advance width="904"/>
	<unicode hex="0077"/>
	<anchor x="367" y="-30" name="bottom"/>
	<anchor x="467" y="520" name="top"/>
	<outline>
		<contour>
			<point x="589" y="-18" type="curve" smooth="yes"/>
			<point x="825" y="-18"/>
			<point x="860" y="190"/>
			<point x="829" y="473" type="curve"/>
			<point x="727" y="457" type="line"/>
			<point x="770" y="244"/>
			<point x="733" y="38"/>
			<point x="620" y="38" type="curve" smooth="yes"/>
			<point x="495" y="38"/>
			<point x="466" y="209"/>
			<point x="529" y="449" type="curve"/>
			<point x="431" y="465" type="line"/>
			<point x="394" y="159"/>
			<point x="424" y="-18"/>
		</contour>
		<contour>
			<point x="241" y="-19" type="curve" smooth="yes"/>
			<point x="397" y="-19"/>
			<point x="442" y="159"/>
			<point x="454" y="225" type="curve"/>
			<point x="431" y="465" type="line"/>
			<point x="396" y="239"/>
			<point x="353" y="36"/>
			<point x="249" y="36" type="curve" smooth="yes"/>
			<point x="138" y="36"/>
			<point x="155" y="303"/>
			<point x="180" y="454" type="curve"/>
			<point x="76" y="473" type="line"/>
			<point x="50" y="244"/>
			<point x="58" y="-19"/>
		</contour>
	</outline>
</glyph>
<glyph name="asciitilde" format="2">
	<advance width="569"/>
	<unicode hex="007E"/>
	<outline>
		<contour>
			<point x="45" y="286" type="curve"/>
			<point x="135" y="276" type="line"/>
			<point x="133" y="350"/>
			<point x="158" y="387"/>
			<point x="196" y="387" type="curve" smooth="yes"/>
			<point x="281" y="387"/>
			<point x="305" y="276"/>
			<point x="392" y="276" type="curve" smooth="yes"/>
			<point x="438" y="276"/>
			<point x="524" y="325"/>
			<point x="524" y="451" type="curve"/>
			<point x="443" y="461" type="line"/>
			<point x="446" y="387"/>
			<point x="430" y="350"/>
			<point x="392" y="350" type="curve" smooth="yes"/>
			<point x="322" y="350"/>
			<point x="273" y="461"/>
			<point x="177" y="461" type="curve" smooth="yes"/>
			<point x="119" y="461"/>
			<point x="45" y="412"/>
		</contour>
	</outline>
</glyph>
<glyph name="section" format="2">
	<advance width="484"/>
	<unicode hex="00A7"/>
	<outline>
		<contour>
			<point x="237" y="-13" type="curve" smooth="yes"/>
			<point x="346" y="-13"/>
			<point x="454" y="26"/>
			<point x="454" y="128" type="curve" smooth="yes"/>
			<point x="454" y="302"/>
			<point x="121" y="293"/>
			<point x="121" y="385" type="curve" smooth="yes"/>
			<point x="121" y="415"/>
			<point x="151" y="467"/>
			<point x="248" y="482" type="curve"/>
			<point x="229" y="524" type="line"/>
			<point x="137" y="524"/>
			<point x="57" y="474"/>
			<point x="57" y="383" type="curve" smooth="yes"/>
			<point x="57" y="231"/>
			<point x="370" y="221"/>
			<point x="370" y="130" type="curve" smooth="yes"/>
			<point x="370" y="86"/>
			<point x="324" y="65"/>
			<point x="266" y="65" type="curve" smooth="yes"/>
			<point x="192" y="65"/>
			<point x="97" y="93"/>
			<point x="39" y="120" type="curve"/>
			<point x="30" y="17" type="line"/>
			<point x="85" y="1"/>
			<point x="174" y="-13"/>
		</contour>
		<contour>
			<point x="211" y="284" type="curve"/>
			<point x="237" y="233" type="line"/>
			<point x="346" y="233"/>
			<point x="454" y="272"/>
			<point x="454" y="374" type="curve" smooth="yes"/>
			<point x="454" y="538"/>
			<point x="141" y="501"/>
			<point x="141" y="644" type="curve" smooth="yes"/>
			<point x="141" y="683"/>
			<point x="190" y="701"/>
			<point x="208" y="701" type="curve" smooth="yes"/>
			<point x="272" y="701"/>
			<point x="340" y="657"/>
			<point x="400" y="604" type="curve"/>
			<point x="440" y="686" type="line"/>
			<point x="387" y="734"/>
			<point x="304" y="760"/>
			<point x="229" y="760" type="curve" smooth="yes"/>
			<point x="137" y="760"/>
			<point x="57" y="720"/>
			<point x="57" y="629" type="curve" smooth="yes"/>
			<point x="57" y="477"/>
			<point x="368" y="479"/>
			<point x="368" y="378" type="curve" smooth="yes"/>
			<point x="368" y="320"/>
			<point x="291" y="278"/>
		</contour>
	</outline>
</glyph>
<glyph name="dieresis" format="2">
	<advance width="300"/>
	<unicode hex="00A8"/>
	<anchor x="150" y="520" name="_top"/>
	<anchor x="150" y="700" name="top"/>
	<outline>
		<contour>
			<point x="28" y="561" type="curve"/>
			<point x="116" y="563" type="line"/>
			<point x="114" y="597"/>
			<point x="118" y="625"/>
			<point x="118" y="658" type="curve"/>
			<point x="26" y="660" type="line"/>
			<point x="24" y="630"/>
			<point x="25" y="592"/>
		</contour>
		<contour>
			<point x="188" y="561" type="curve"/>
			<point x="276" y="563" type="line"/>
			<point x="274" y="597"/>
			<point x="278" y="625"/>
			<point x="278" y="658" type="curve"/>
			<point x="186" y="660" type="line"/>
			<point x="184" y="630"/>
			<point x="185" y="592"/>
		</contour>
	</outline>
</glyph>
<glyph name="copyright" format="2">
	<advance width="1041"/>
	<unicode hex="00A9"/>
	<anchor x="571" y="-2" name="bottom"/>
	<anchor x="591" y="28" name="cedilla"/>
	<anchor x="597" y="800" name="top"/>
	<outline>
		<contour>
			<point x="530" y="-129" type="curve" smooth="yes"/>
			<point x="758" y="-129"/>
			<point x="976" y="66"/>
			<point x="976" y="372" type="curve" smooth="yes"/>
			<point x="976" y="640"/>
			<point x="767" y="801"/>
			<point x="510" y="801" type="curve" smooth="yes"/>
			<point x="253" y="801"/>
			<point x="65" y="630"/>
			<point x="65" y="362" type="curve" smooth="yes"/>
			<point x="65" y="62"/>
			<point x="302" y="-129"/>
		</contour>
		<contour>
			<point x="529" y="-39" type="curve"/>
			<point x="303" y="-39"/>
			<point x="148" y="114"/>
			<point x="148" y="364" type="curve" smooth="yes"/>
			<point x="148" y="586"/>
			<point x="294" y="732"/>
			<point x="505" y="732" type="curve" smooth="yes"/>
			<point x="716" y="732"/>
			<point x="896" y="602"/>
			<point x="896" y="382" type="curve" smooth="yes"/>
			<point x="896" y="121"/>
			<point x="755" y="-39"/>
		</contour>
		<contour>
			<point x="519" y="38" type="curve" smooth="yes"/>
			<point x="571" y="38"/>
			<point x="624" y="47"/>
			<point x="673" y="77" type="curve"/>
			<point x="672" y="127" type="line"/>
			<point x="624" y="102"/>
			<point x="582" y="91"/>
			<point x="517" y="91" type="curve" smooth="yes"/>
			<point x="419" y="91"/>
			<point x="322" y="171"/>
			<point x="322" y="322" type="curve" smooth="yes"/>
			<point x="322" y="471"/>
			<point x="423" y="569"/>
			<point x="546" y="569" type="curve" smooth="yes"/>
			<point x="590" y="569"/>
			<point x="638" y="560"/>
			<point x="683" y="538" type="curve"/>
			<point x="692" y="600" type="line"/>
			<point x="653" y="625"/>
			<point x="599" y="638"/>
			<point x="542" y="638" type="curve" smooth="yes"/>
			<point x="401" y="638"/>
			<point x="242" y="550"/>
			<point x="242" y="325" type="curve" smooth="yes"/>
			<point x="242" y="150"/>
			<point x="374" y="38"/>
		</contour>
	</outline>
</glyph>
<glyph name="Eth" format="2">
	<advance width="764"/>
	<unicode hex="00D0"/>
	<outline>
		<component base="D"/>
		<contour>
			<point x="19" y="298" type="line"/>
			<point x="398" y="310" type="line"/>
			<point x="398" y="373" type="line"/>
			<point x="20" y="384" type="line"/>
		</contour>
	</outline>
</glyph>
<glyph name="Oslash" format="2">
	<advance width="800"/>
	<unicode hex="00D8"/>
	<outline>
		<component base="O"/>
		<contour>
			<point x="197" y="-58" type="line"/>
			<point x="641" y="760" type="line"/>
			<point x="583" y="788" type="line"/>
			<point x="138" y="-29" type="line"/>
		</contour>
	</outline>
</glyph>
<glyph name="thorn" format="2">
	<advance width="594"/>
	<unicode hex="00FE"/>
	<outline>
		<contour>
			<point x="75" y="-182" type="curve"/>
			<point x="179" y="-168" type="line"/>
			<point x="189" y="83"/>
			<point x="189" y="320"/>
			<point x="161" y="597" type="curve"/>
			<point x="81" y="584" type="line"/>
			<point x="95" y="326"/>
			<point x="93" y="58"/>
		</contour>
		<contour>
			<point x="142" y="19" type="curve"/>
			<point x="160" y="-34" type="line"/>
			<point x="468" y="38"/>
			<point x="549" y="182"/>
			<point x="549" y="295" type="curve" smooth="yes"/>
			<point x="549" y="397"/>
			<point x="469" y="459"/>
			<point x="378" y="459" type="curve" smooth="yes"/>
			<point x="264" y="459"/>
			<point x="135" y="363"/>
			<point x="119" y="126" type="curve"/>
			<point x="181" y="157" type="line"/>
			<point x="181" y="286"/>
			<point x="264" y="376"/>
			<point x="355" y="376" type="curve" smooth="yes"/>
			<point x="408" y="376"/>
			<point x="444" y="340"/>
			<point x="444" y="288" type="curve" smooth="yes"/>
			<point x="444" y="186"/>
			<point x="352" y="72"/>
		</contour>
	</outline>
</glyph>
<glyph name="dcroat" format="2">
	<advance width="576"/>
	<unicode hex="0111"/>
	<outline>
		<component base="d"/>
		<contour>
			<point x="184" y="577" type="line"/>
			<point x="587" y="590" type="line"/>
			<point x="587" y="661" type="line"/>
			<point x="186" y="673" type="line"/>
		</contour>
	</outline>
</glyph>
<glyph name="Lslash" format="2">
	<advance width="576"/>
	<unicode hex="0141"/>
	<outline>
		<component base="L"/>
		<contour>
			<point x="35" y="176" type="line"/>
			<point x="399" y="439" type="line"/>
			<point x="368" y="494" type="line"/>
			<point x="-5" y="249" type="line"/>
		</contour>
	</outline>
</glyph>
<glyph name="lslash" format="2">
	<advance width="260"/>
	<unicode hex="0142"/>
	<outline>
		<component base="l"/>
		<contour>
			<point x="2" y="212" type="line"/>
			<point x="340" y="450" type="line"/>
			<point x="307" y="513" type="line"/>
			<point x="-39" y="290" type="line"/>
		</contour>
	</outline>
</glyph>
<glyph name="circumflex" format="2">
	<advance width="300"/>
	<unicode hex="02C6"/>
	<anchor x="150" y="520" name="_top"/>
	<anchor x="150" y="752" name="top"/>
	<outline>
		<contour>
			<point x="45" y="546" type="line"/>
			<point x="162" y="696" type="line"/>
			<point x="150" y="752" type="line"/>
			<point x="-12" y="576" type="line"/>
		</contour>
		<contour>
			<point x="255" y="546" type="line"/>
			<point x="312" y="576" type="line"/>
			<point x="150" y="752" type="line"/>
			<point x="138" y="696" type="line"/>
		</contour>
	</outline>
</glyph>
<glyph name="ring" format="2">
	<advance width="300"/>
	<unicode hex="02DA"/>
	<anchor x="150" y="520" name="_top"/>
	<anchor x="149" y="770" name="top"/>
	<outline>
		<contour>
			<point x="149" y="561" type="curve" smooth="yes"/>
			<point x="223" y="561"/>
			<point x="256" y="610"/>
			<point x="256" y="660" type="curve" smooth="yes"/>
			<point x="256" y="715"/>
			<point x="218" y="770"/>
			<point x="149" y="770" type="curve" smooth="yes"/>
			<point x="80" y="770"/>
			<point x="48" y="720"/>
			<point x="48" y="669" type="curve" smooth="yes"/>
			<point x="48" y="616"/>
			<point x="85" y="561"/>
		</contour>
		<contour>
			<point x="151" y="599" type="curve" smooth="yes"/>
			<point x="107" y="599"/>
			<point x="83" y="635"/>
			<point x="83" y="667" type="curve" smooth="yes"/>
			<point x="83" y="700"/>
			<point x="104" y="733"/>
			<point x="151" y="733" type="curve" smooth="yes"/>
			<point x="196" y="733"/>
			<point x="221" y="698"/>
			<point x="221" y="662" type="curve" smooth="yes"/>
			<point x="221" y="629"/>
			<point x="200" y="599"/>
		</contour>
	</outline>
</glyph>
<glyph name="acutecomb" format="2">
	<advance width="0"/>
	<unicode hex="0301"/>
	<guideline x="188" y="561" angle="0"/>
	<anchor x="150" y="520" name="_top"/>
	<anchor x="150" y="700" name="top"/>
	<outline>
		<contour>
			<point x="150" y="560" type="line"/>
			<point x="334" y="751" type="line"/>
			<point x="292" y="792" type="line"/>
			<point x="120" y="584" type="line"/>
		</contour>
	</outline>
</glyph>
<glyph name="tildecomb" format="2">
	<advance width="0"/>
	<unicode hex="0303"/>
	<anchor x="150" y="520" name="_top"/>
	<anchor x="150" y="710" name="top"/>
	<outline>
		<contour>
			<point x="-12" y="559" type="curve"/>
			<point x="33" y="555" type="line"/>
			<point x="31" y="605"/>
			<point x="48" y="644"/>
			<point x="80" y="644" type="curve" smooth="yes"/>
			<point x="128" y="644"/>
			<point x="174" y="552"/>
			<point x="232" y="552" type="curve" smooth="yes"/>
			<point x="263" y="552"/>
			<point x="312" y="587"/>
			<point x="312" y="680" type="curve"/>
			<point x="272" y="683" type="line"/>
			<point x="274" y="631"/>
			<point x="260" y="592"/>
			<point x="224" y="592" type="curve" smooth="yes"/>
			<point x="172" y="592"/>
			<point x="141" y="684"/>
			<point x="78" y="684" type="curve" smooth="yes"/>
			<point x="29" y="684"/>
			<point x="-12" y="649"/>
		</contour>
	</outline>
</glyph>
<glyph name="uni0304" format="2">
	<advance width="0"/>
	<unicode hex="0304"/>
	<guideline x="188" y="561" angle="0"/>
	<anchor x="150" y="520" name="_top"/>
	<anchor x="150" y="700" name="top"/>
	<outline>
		<contour>
			<point x="266" y="565" type="line"/>
			<point x="273" y="601" type="line"/>
			<point x="37" y="615" type="line"/>
			<point x="27" y="567" type="line"/>
		</contour>
	</outline>
</glyph>
<glyph name="uni030C" format="2">
	<advance width="0"/>
	<unicode hex="030C"/>
	<guideline x="188" y="561" angle="0"/>
	<anchor x="150" y="520" name="_top"/>
	<anchor x="150" y="752" name="top"/>
	<outline>
		<contour>
			<point x="45" y="749" type="line"/>
			<point x="-12" y="719" type="line"/>
			<point x="150" y="543" type="line"/>
			<point x="162" y="599" type="line"/>
		</contour>
		<contour>
			<point x="255" y="749" type="line"/>
			<point x="138" y="599" type="line"/>
			<point x="150" y="543" type="line"/>
			<point x="312" y="719" type="line"/>
		</contour>
	</outline>
</glyph>
<glyph name="uni0312" format="2">
	<advance width="0"/>
	<unicode hex="0312"/>
	<guideline x="188" y="561" angle="0"/>
	<anchor x="150" y="520" name="_top"/>
	<anchor x="150" y="830" name="top"/>
	<outline>
		<contour>
			<point x="189" y="698" type="curve"/>
			<point x="158" y="745" type="line"/>
			<point x="129" y="715"/>
			<point x="117" y="687"/>
			<point x="116" y="642" type="curve" smooth="yes"/>
			<point x="115" y="615"/>
			<point x="114" y="593"/>
			<point x="114" y="567" type="curve"/>
			<point x="187" y="565" type="line"/>
			<point x="188" y="589"/>
			<point x="188" y="619"/>
			<point x="185" y="644" type="curve"/>
			<point x="127" y="642" type="line"/>
			<point x="138" y="633" type="line"/>
			<point x="145" y="643"/>
			<point x="165" y="682"/>
		</contour>
	</outline>
</glyph>
<glyph name="uni0615" format="2">
	<advance width="0"/>
	<unicode hex="0615"/>
	<anchor x="41" y="572" name="_top"/>
	<anchor x="49" y="860" name="top"/>
	<outline>
		<contour>
			<point x="23" y="599" type="curve" smooth="yes"/>
			<point x="115" y="599"/>
			<point x="163" y="642"/>
			<point x="163" y="703" type="curve" smooth="yes"/>
			<point x="163" y="746"/>
			<point x="133" y="775"/>
			<point x="91" y="775" type="curve" smooth="yes"/>
			<point x="35" y="775"/>
			<point x="-13" y="712"/>
			<point x="-26" y="631" type="curve"/>
			<point x="-9" y="626" type="line"/>
			<point x="11" y="690"/>
			<point x="43" y="720"/>
			<point x="71" y="720" type="curve" smooth="yes"/>
			<point x="93" y="720"/>
			<point x="104" y="704"/>
			<point x="104" y="683" type="curve" smooth="yes"/>
			<point x="104" y="661"/>
			<point x="83" y="640"/>
			<point x="13" y="640" type="curve" smooth="yes"/>
			<point x="-28" y="641"/>
			<point x="-54" y="649"/>
			<point x="-70" y="654" type="curve"/>
			<point x="-78" y="616" type="line"/>
			<point x="-50" y="605"/>
			<point x="1" y="599"/>
		</contour>
		<contour>
			<point x="-35" y="634" type="curve"/>
			<point x="-13" y="627" type="line"/>
			<point x="14" y="688"/>
			<point x="17" y="785"/>
			<point x="11" y="859" type="curve"/>
			<point x="-58" y="850" type="line"/>
			<point x="-42" y="779"/>
			<point x="-29" y="717"/>
		</contour>
	</outline>
</glyph>
<glyph name="uni061F" format="2">
	<advance width="550"/>
	<unicode hex="061F"/>
	<outline>
		<contour>
			<point x="303" y="209" type="curve"/>
			<point x="363" y="214" type="line"/>
			<point x="363" y="428"/>
			<point x="131" y="444"/>
			<point x="131" y="573" type="curve" smooth="yes"/>
			<point x="131" y="616"/>
			<point x="159" y="663"/>
			<point x="244" y="663" type="curve" smooth="yes"/>
			<point x="326" y="663"/>
			<point x="400" y="634"/>
			<point x="464" y="593" type="curve"/>
			<point x="510" y="703" type="line"/>
			<point x="426" y="730"/>
			<point x="337" y="757"/>
			<point x="260" y="757" type="curve" smooth="yes"/>
			<point x="136" y="757"/>
			<point x="40" y="702"/>
			<point x="40" y="576" type="curve" smooth="yes"/>
			<point x="40" y="380"/>
			<point x="303" y="386"/>
		</contour>
		<component base="period.salt" xOffset="189"/>
	</outline>
</glyph>
<glyph name="uni0621" format="2">
	<advance width="480"/>
	<unicode hex="0621"/>
	<anchor x="242" y="-150" name="bottom"/>
	<anchor x="233" y="450" name="top"/>
	<outline>
		<contour>
			<point x="236" y="36" type="curve"/>
			<point x="281" y="42" type="line"/>
			<point x="440" y="61" type="line"/>
			<point x="402" y="141" type="line"/>
			<point x="347" y="116"/>
			<point x="283" y="96"/>
			<point x="230" y="96" type="curve" smooth="yes"/>
			<point x="167" y="96"/>
			<point x="117" y="122"/>
			<point x="117" y="187" type="curve" smooth="yes"/>
			<point x="117" y="241"/>
			<point x="161" y="276"/>
			<point x="215" y="276" type="curve" smooth="yes"/>
			<point x="251" y="276"/>
			<point x="293" y="259"/>
			<point x="332" y="214" type="curve"/>
			<point x="400" y="291" type="line"/>
			<point x="353" y="345"/>
			<point x="289" y="368"/>
			<point x="228" y="368" type="curve" smooth="yes"/>
			<point x="128" y="368"/>
			<point x="40" y="310"/>
			<point x="40" y="202" type="curve" smooth="yes"/>
			<point x="40" y="111"/>
			<point x="107" y="36"/>
		</contour>
		<contour>
			<point x="71" y="-32" type="curve"/>
			<point x="140" y="-110" type="line"/>
			<point x="220" y="-25"/>
			<point x="295" y="29"/>
			<point x="440" y="61" type="curve"/>
			<point x="359" y="95" type="line"/>
			<point x="241" y="72"/>
			<point x="129" y="22"/>
		</contour>
	</outline>
</glyph>
<glyph name="uni0631" format="2">
	<advance width="300"/>
	<unicode hex="0631"/>
	<anchor x="116" y="-390" name="bottom"/>
	<anchor x="147" y="550" name="top"/>
	<outline>
		<contour>
			<point x="-80" y="-261" type="curve"/>
			<point x="-3" y="-340" type="line"/>
			<point x="170" y="-180"/>
			<point x="240" y="9"/>
			<point x="240" y="150" type="curve" smooth="yes"/>
			<point x="240" y="259"/>
			<point x="226" y="333"/>
			<point x="200" y="400" type="curve"/>
			<point x="140" y="378" type="line"/>
			<point x="162" y="326"/>
			<point x="174" y="268"/>
			<point x="174" y="207" type="curve" smooth="yes"/>
			<point x="174" y="56"/>
			<point x="99" y="-113"/>
		</contour>
	</outline>
</glyph>
<glyph name="uni0633" format="2">
	<advance width="1220"/>
	<unicode hex="0633"/>
	<anchor x="831" y="-100" name="bottom"/>
	<anchor x="801" y="550" name="top"/>
	<outline>
		<contour>
			<point x="305" y="-247" type="curve" smooth="yes"/>
			<point x="530" y="-247"/>
			<point x="594" y="-28"/>
			<point x="594" y="187" type="curve" smooth="yes"/>
			<point x="594" y="201"/>
			<point x="594" y="216"/>
			<point x="593" y="231" type="curve" smooth="yes"/>
			<point x="592" y="253"/>
			<point x="590" y="286"/>
			<point x="585" y="324" type="curve"/>
			<point x="471" y="306" type="line"/>
			<point x="490" y="237"/>
			<point x="498" y="177"/>
			<point x="498" y="102" type="curve" smooth="yes"/>
			<point x="498" y="-55"/>
			<point x="453" y="-192"/>
			<point x="315" y="-192" type="curve" smooth="yes"/>
			<point x="220" y="-192"/>
			<point x="136" y="-139"/>
			<point x="136" y="-26" type="curve" smooth="yes"/>
			<point x="136" y="59"/>
			<point x="186" y="135"/>
			<point x="264" y="184" type="curve"/>
			<point x="213" y="262" type="line"/>
			<point x="120" y="198"/>
			<point x="60" y="108"/>
			<point x="60" y="-6" type="curve" smooth="yes"/>
			<point x="60" y="-136"/>
			<point x="158" y="-247"/>
		</contour>
		<contour>
			<point x="691" y="-9" type="curve" smooth="yes"/>
			<point x="794" y="-9"/>
			<point x="875" y="55"/>
			<point x="875" y="248" type="curve" smooth="yes"/>
			<point x="875" y="285"/>
			<point x="875" y="302"/>
			<point x="875" y="328" type="curve"/>
			<point x="762" y="312" type="line"/>
			<point x="774" y="258"/>
			<point x="781" y="235"/>
			<point x="781" y="174" type="curve" smooth="yes"/>
			<point x="781" y="103"/>
			<point x="761" y="50"/>
			<point x="692" y="50" type="curve" smooth="yes"/>
			<point x="614" y="50"/>
			<point x="595" y="107"/>
			<point x="594" y="187" type="curve"/>
			<point x="544" y="179" type="line"/>
			<point x="544" y="59"/>
			<point x="602" y="-9"/>
		</contour>
		<contour>
			<point x="983" y="-11" type="curve" smooth="yes"/>
			<point x="1122" y="-11"/>
			<point x="1160" y="88"/>
			<point x="1160" y="211" type="curve" smooth="yes"/>
			<point x="1160" y="284"/>
			<point x="1154" y="327"/>
			<point x="1136" y="419" type="curve"/>
			<point x="1026" y="398" type="line"/>
			<point x="1049" y="319"/>
			<point x="1066" y="237"/>
			<point x="1066" y="173" type="curve" smooth="yes"/>
			<point x="1066" y="103"/>
			<point x="1046" y="50"/>
			<point x="983" y="50" type="curve" smooth="yes"/>
			<point x="897" y="50"/>
			<point x="875" y="147"/>
			<point x="875" y="248" type="curve"/>
			<point x="839" y="132" type="line"/>
			<point x="839" y="65"/>
			<point x="897" y="-11"/>
		</contour>
	</outline>
</glyph>
<glyph name="uni064B" format="2">
	<advance width="0"/>
	<unicode hex="064B"/>
	<anchor x="50" y="577" name="_top"/>
	<anchor x="50" y="753" name="top"/>
	<outline>
		<contour>
			<point x="-71" y="666" type="curve"/>
			<point x="-71" y="612" type="line"/>
			<point x="35" y="640"/>
			<point x="80" y="652"/>
			<point x="171" y="676" type="curve"/>
			<point x="171" y="710" type="line"/>
			<point x="84" y="694"/>
			<point x="25" y="683"/>
		</contour>
		<contour>
			<point x="-71" y="736" type="curve"/>
			<point x="-71" y="702" type="line"/>
			<point x="16" y="718"/>
			<point x="75" y="729"/>
			<point x="171" y="746" type="curve"/>
			<point x="171" y="800" type="line"/>
			<point x="65" y="772"/>
			<point x="20" y="760"/>
		</contour>
	</outline>
</glyph>
<glyph name="uni064E" format="2">
	<advance width="0"/>
	<unicode hex="064E"/>
	<anchor x="50" y="602" name="_top"/>
	<anchor x="50" y="692" name="top"/>
	<outline>
		<contour>
			<point x="-71" y="676" type="curve"/>
			<point x="-71" y="622" type="line"/>
			<point x="35" y="650"/>
			<point x="80" y="662"/>
			<point x="171" y="686" type="curve"/>
			<point x="171" y="720" type="line"/>
			<point x="84" y="704"/>
			<point x="25" y="693"/>
		</contour>
	</outline>
</glyph>
<glyph name="uni064F" format="2">
	<advance width="0"/>
	<unicode hex="064F"/>
	<anchor x="50" y="565" name="_top"/>
	<anchor x="50" y="765" name="top"/>
	<outline>
		<contour>
			<point x="-71" y="643" type="curve"/>
			<point x="-71" y="589" type="line"/>
			<point x="12" y="602"/>
			<point x="82" y="610"/>
			<point x="124" y="632" type="curve" smooth="yes"/>
			<point x="156" y="649"/>
			<point x="171" y="675"/>
			<point x="171" y="710" type="curve" smooth="yes"/>
			<point x="171" y="744"/>
			<point x="148" y="777"/>
			<point x="105" y="777" type="curve" smooth="yes"/>
			<point x="61" y="777"/>
			<point x="35" y="746"/>
			<point x="35" y="703" type="curve" smooth="yes"/>
			<point x="35" y="671"/>
			<point x="54" y="645"/>
			<point x="77" y="627" type="curve"/>
			<point x="112" y="633" type="line"/>
			<point x="93" y="647"/>
			<point x="72" y="668"/>
			<point x="72" y="693" type="curve" smooth="yes"/>
			<point x="72" y="710"/>
			<point x="84" y="723"/>
			<point x="102" y="723" type="curve" smooth="yes"/>
			<point x="117" y="723"/>
			<point x="129" y="712"/>
			<point x="129" y="698" type="curve" smooth="yes"/>
			<point x="129" y="675"/>
			<point x="111" y="662"/>
			<point x="73" y="656" type="curve" smooth="yes"/>
			<point x="28" y="649"/>
			<point x="2" y="648"/>
		</contour>
	</outline>
</glyph>
<glyph name="uni0650" format="2">
	<advance width="0"/>
	<unicode hex="0650"/>
	<anchor x="50" y="-60" name="_bottom"/>
	<anchor x="50" y="-173" name="bottom"/>
	<outline>
		<contour>
			<point x="-71" y="-121" type="curve"/>
			<point x="-71" y="-175" type="line"/>
			<point x="35" y="-147"/>
			<point x="80" y="-135"/>
			<point x="171" y="-111" type="curve"/>
			<point x="171" y="-77" type="line"/>
			<point x="84" y="-93"/>
			<point x="25" y="-104"/>
		</contour>
	</outline>
</glyph>
<glyph name="uni0654" format="2">
	<advance width="0"/>
	<unicode hex="0654"/>
	<anchor x="48" y="611" name="_top"/>
	<anchor x="43" y="831" name="top"/>
	<outline>
		<contour>
			<point x="40" y="688" type="curve"/>
			<point x="58" y="682" type="line"/>
			<point x="151" y="684" type="line"/>
			<point x="151" y="735" type="line"/>
			<point x="117" y="720"/>
			<point x="105" y="715"/>
			<point x="70" y="708" type="curve" smooth="yes"/>
			<point x="18" y="698"/>
			<point x="-11" y="717"/>
			<point x="-11" y="742" type="curve" smooth="yes"/>
			<point x="-11" y="762"/>
			<point x="10" y="773"/>
			<point x="32" y="773" type="curve" smooth="yes"/>
			<point x="54" y="773"/>
			<point x="71" y="765"/>
			<point x="86" y="752" type="curve"/>
			<point x="130" y="794" type="line"/>
			<point x="104" y="820"/>
			<point x="70" y="826"/>
			<point x="39" y="826" type="curve" smooth="yes"/>
			<point x="-11" y="826"/>
			<point x="-56" y="801"/>
			<point x="-56" y="757" type="curve" smooth="yes"/>
			<point x="-56" y="720"/>
			<point x="-24" y="688"/>
		</contour>
		<contour>
			<point x="-64" y="680" type="curve"/>
			<point x="-64" y="609" type="line"/>
			<point x="30" y="647"/>
			<point x="70" y="660"/>
			<point x="151" y="684" type="curve"/>
			<point x="151" y="721" type="line"/>
			<point x="74" y="708"/>
			<point x="21" y="698"/>
		</contour>
	</outline>
</glyph>
<glyph name="uni0660" format="2">
	<advance width="380"/>
	<unicode hex="0660"/>
	<outline>
		<contour>
			<point x="196" y="213" type="curve"/>
			<point x="280" y="298" type="line"/>
			<point x="241" y="325"/>
			<point x="213" y="350"/>
			<point x="183" y="384" type="curve"/>
			<point x="100" y="295" type="line"/>
			<point x="125" y="264"/>
			<point x="161" y="236"/>
		</contour>
	</outline>
</glyph>
<glyph name="uni0662" format="2">
	<advance width="570"/>
	<unicode hex="0662"/>
	<outline>
		<contour>
			<point x="103" y="-9" type="curve"/>
			<point x="218" y="11" type="line"/>
			<point x="173" y="221"/>
			<point x="157" y="300"/>
			<point x="157" y="401" type="curve" smooth="yes"/>
			<point x="157" y="516"/>
			<point x="200" y="547"/>
			<point x="272" y="547" type="curve" smooth="yes"/>
			<point x="323" y="547"/>
			<point x="388" y="534"/>
			<point x="484" y="488" type="curve"/>
			<point x="530" y="596" type="line"/>
			<point x="457" y="612"/>
			<point x="394" y="621"/>
			<point x="309" y="621" type="curve" smooth="yes"/>
			<point x="166" y="621"/>
			<point x="94" y="536"/>
			<point x="83" y="392" type="curve" smooth="yes"/>
			<point x="72" y="252"/>
			<point x="88" y="168"/>
		</contour>
	</outline>
</glyph>
<glyph name="uni0663" format="2">
	<advance width="700"/>
	<unicode hex="0663"/>
	<outline>
		<contour>
			<point x="145" y="-27" type="curve"/>
			<point x="260" y="-11" type="line"/>
			<point x="266" y="208"/>
			<point x="217" y="417"/>
			<point x="144" y="606" type="curve"/>
			<point x="80" y="582" type="line"/>
			<point x="145" y="352"/>
			<point x="167" y="230"/>
		</contour>
		<contour>
			<point x="316" y="286" type="curve" smooth="yes"/>
			<point x="455" y="286"/>
			<point x="420" y="495"/>
			<point x="428" y="564" type="curve"/>
			<point x="320" y="560" type="line"/>
			<point x="333" y="523"/>
			<point x="345" y="441"/>
			<point x="345" y="404" type="curve" smooth="yes"/>
			<point x="345" y="375"/>
			<point x="335" y="346"/>
			<point x="300" y="346" type="curve" smooth="yes"/>
			<point x="220" y="346"/>
			<point x="189" y="500"/>
			<point x="144" y="606" type="curve"/>
			<point x="138" y="512" type="line"/>
			<point x="149" y="469"/>
			<point x="177" y="286"/>
		</contour>
		<contour>
			<point x="512" y="278" type="curve" smooth="yes"/>
			<point x="580" y="278"/>
			<point x="650" y="331"/>
			<point x="650" y="483" type="curve" smooth="yes"/>
			<point x="650" y="534"/>
			<point x="644" y="570"/>
			<point x="635" y="619" type="curve"/>
			<point x="528" y="596" type="line"/>
			<point x="552" y="538"/>
			<point x="570" y="472"/>
			<point x="570" y="412" type="curve" smooth="yes"/>
			<point x="570" y="381"/>
			<point x="564" y="333"/>
			<point x="512" y="333" type="curve" smooth="yes"/>
			<point x="428" y="333"/>
			<point x="431" y="502"/>
			<point x="428" y="564" type="curve"/>
			<point x="402" y="411" type="line"/>
			<point x="402" y="346"/>
			<point x="439" y="278"/>
		</contour>
	</outline>
</glyph>
<glyph name="uni0664" format="2">
	<advance width="590"/>
	<unicode hex="0664"/>
	<outline>
		<contour>
			<point x="285" y="-30" type="curve" smooth="yes"/>
			<point x="365" y="-30"/>
			<point x="432" y="-21"/>
			<point x="530" y="8" type="curve"/>
			<point x="490" y="115" type="line"/>
			<point x="419" y="82"/>
			<point x="345" y="62"/>
			<point x="278" y="62" type="curve" smooth="yes"/>
			<point x="186" y="62"/>
			<point x="132" y="100"/>
			<point x="132" y="143" type="curve" smooth="yes"/>
			<point x="132" y="194"/>
			<point x="180" y="250"/>
			<point x="297" y="260" type="curve" smooth="yes"/>
			<point x="373" y="267"/>
			<point x="397" y="261"/>
			<point x="455" y="261" type="curve"/>
			<point x="373" y="335" type="line"/>
			<point x="175" y="335"/>
			<point x="60" y="229"/>
			<point x="60" y="131" type="curve" smooth="yes"/>
			<point x="60" y="50"/>
			<point x="127" y="-30"/>
		</contour>
		<contour>
			<point x="282" y="294" type="curve"/>
			<point x="455" y="261" type="line"/>
			<point x="425" y="378" type="line"/>
			<point x="384" y="366"/>
			<point x="332" y="355"/>
			<point x="279" y="355" type="curve" smooth="yes"/>
			<point x="200" y="355"/>
			<point x="154" y="399"/>
			<point x="154" y="439" type="curve" smooth="yes"/>
			<point x="154" y="481"/>
			<point x="197" y="522"/>
			<point x="296" y="522" type="curve" smooth="yes"/>
			<point x="347" y="522"/>
			<point x="402" y="505"/>
			<point x="446" y="484" type="curve"/>
			<point x="506" y="568" type="line"/>
			<point x="437" y="601"/>
			<point x="384" y="615"/>
			<point x="311" y="615" type="curve" smooth="yes"/>
			<point x="155" y="615"/>
			<point x="79" y="538"/>
			<point x="79" y="460" type="curve" smooth="yes"/>
			<point x="79" y="380"/>
			<point x="148" y="294"/>
		</contour>
	</outline>
</glyph>
<glyph name="uni0665" format="2">
	<advance width="640"/>
	<unicode hex="0665"/>
	<outline>
		<contour>
			<point x="281" y="-25" type="curve" smooth="yes"/>
			<point x="482" y="-22"/>
			<point x="582" y="92"/>
			<point x="582" y="239" type="curve" smooth="yes"/>
			<point x="582" y="355"/>
			<point x="491" y="491"/>
			<point x="319" y="610" type="curve"/>
			<point x="268" y="493" type="line"/>
			<point x="419" y="414"/>
			<point x="516" y="308"/>
			<point x="516" y="222" type="curve" smooth="yes"/>
			<point x="516" y="147"/>
			<point x="453" y="90"/>
			<point x="295" y="90" type="curve" smooth="yes"/>
			<point x="181" y="90"/>
			<point x="140" y="131"/>
			<point x="140" y="194" type="curve" smooth="yes"/>
			<point x="140" y="287"/>
			<point x="238" y="423"/>
			<point x="345" y="550" type="curve"/>
			<point x="319" y="610" type="line"/>
			<point x="182" y="451"/>
			<point x="61" y="270"/>
			<point x="61" y="142" type="curve" smooth="yes"/>
			<point x="61" y="41"/>
			<point x="115" y="-27"/>
		</contour>
	</outline>
</glyph>
<glyph name="uni0666" format="2">
	<advance width="580"/>
	<unicode hex="0666"/>
	<outline>
		<contour>
			<point x="400" y="0" type="curve"/>
			<point x="520" y="17" type="line"/>
			<point x="474" y="150"/>
			<point x="459" y="303"/>
			<point x="457" y="382" type="curve" smooth="yes"/>
			<point x="453" y="537"/>
			<point x="394" y="611"/>
			<point x="251" y="611" type="curve" smooth="yes"/>
			<point x="166" y="611"/>
			<point x="113" y="602"/>
			<point x="40" y="586" type="curve"/>
			<point x="86" y="478" type="line"/>
			<point x="182" y="524"/>
			<point x="237" y="537"/>
			<point x="288" y="537" type="curve" smooth="yes"/>
			<point x="360" y="537"/>
			<point x="383" y="511"/>
			<point x="383" y="396" type="curve" smooth="yes"/>
			<point x="383" y="272"/>
			<point x="386" y="152"/>
		</contour>
	</outline>
</glyph>
<glyph name="uni0667" format="2">
	<advance width="680"/>
	<unicode hex="0667"/>
	<outline>
		<contour>
			<point x="347" y="48" type="curve"/>
			<point x="306" y="-12" type="line"/>
			<point x="391" y="3" type="line"/>
			<point x="438" y="135"/>
			<point x="537" y="369"/>
			<point x="640" y="579" type="curve"/>
			<point x="549" y="598" type="line"/>
			<point x="457" y="400"/>
			<point x="384" y="198"/>
		</contour>
		<contour>
			<point x="306" y="-12" type="curve"/>
			<point x="374" y="36" type="line"/>
			<point x="323" y="247"/>
			<point x="244" y="390"/>
			<point x="155" y="609" type="curve"/>
			<point x="40" y="573" type="line"/>
			<point x="162" y="357"/>
			<point x="253" y="122"/>
		</contour>
	</outline>
</glyph>
<glyph name="uni0668" format="2">
	<advance width="680"/>
	<unicode hex="0668"/>
	<outline>
		<contour>
			<point x="525" y="-12" type="curve"/>
			<point x="640" y="24" type="line"/>
			<point x="518" y="240"/>
			<point x="427" y="475"/>
			<point x="374" y="609" type="curve"/>
			<point x="306" y="561" type="line"/>
			<point x="357" y="350"/>
			<point x="436" y="207"/>
		</contour>
		<contour>
			<point x="40" y="18" type="curve"/>
			<point x="131" y="-1" type="line"/>
			<point x="223" y="197"/>
			<point x="296" y="399"/>
			<point x="333" y="549" type="curve"/>
			<point x="374" y="609" type="line"/>
			<point x="289" y="594" type="line"/>
			<point x="242" y="462"/>
			<point x="143" y="228"/>
		</contour>
	</outline>
</glyph>
<glyph name="uni0669" format="2">
	<advance width="647"/>
	<unicode hex="0669"/>
	<outline>
		<contour>
			<point x="241" y="133" type="curve" smooth="yes"/>
			<point x="351" y="131"/>
			<point x="472" y="214"/>
			<point x="472" y="391" type="curve"/>
			<point x="430" y="402" type="line"/>
			<point x="424" y="341"/>
			<point x="360" y="225"/>
			<point x="255" y="225" type="curve" smooth="yes"/>
			<point x="192" y="225"/>
			<point x="155" y="273"/>
			<point x="155" y="330" type="curve" smooth="yes"/>
			<point x="155" y="472"/>
			<point x="338" y="590"/>
			<point x="539" y="532" type="curve"/>
			<point x="550" y="585" type="line"/>
			<point x="312" y="658"/>
			<point x="66" y="523"/>
			<point x="66" y="307" type="curve" smooth="yes"/>
			<point x="66" y="194"/>
			<point x="150" y="135"/>
		</contour>
		<contour>
			<point x="452" y="-9" type="curve"/>
			<point x="567" y="11" type="line"/>
			<point x="515" y="252"/>
			<point x="487" y="367"/>
			<point x="513" y="572" type="curve"/>
			<point x="452" y="565" type="line"/>
			<point x="441" y="522"/>
			<point x="434" y="465"/>
			<point x="430" y="402" type="curve" smooth="yes"/>
			<point x="421" y="244"/>
			<point x="433" y="115"/>
		</contour>
	</outline>
</glyph>
<glyph name="uni066F" format="2">
	<advance width="840"/>
	<unicode hex="066F"/>
	<anchor x="540" y="-299" name="bottom"/>
	<anchor x="556" y="550" name="top"/>
	<outline>
		<contour>
			<point x="352" y="-249" type="curve" smooth="yes"/>
			<point x="551" y="-249"/>
			<point x="780" y="-116"/>
			<point x="780" y="127" type="curve" smooth="yes"/>
			<point x="780" y="323"/>
			<point x="669" y="404"/>
			<point x="562" y="404" type="curve" smooth="yes"/>
			<point x="461" y="404"/>
			<point x="364" y="333"/>
			<point x="364" y="221" type="curve" smooth="yes"/>
			<point x="364" y="126"/>
			<point x="434" y="0"/>
			<point x="704" y="0" type="curve"/>
			<point x="704" y="50" type="line"/>
			<point x="489" y="50"/>
			<point x="436" y="151"/>
			<point x="436" y="221" type="curve" smooth="yes"/>
			<point x="436" y="278"/>
			<point x="492" y="319"/>
			<point x="551" y="319" type="curve" smooth="yes"/>
			<point x="616" y="319"/>
			<point x="686" y="268"/>
			<point x="686" y="130" type="curve" smooth="yes"/>
			<point x="686" y="-85"/>
			<point x="501" y="-194"/>
			<point x="347" y="-194" type="curve" smooth="yes"/>
			<point x="209" y="-194"/>
			<point x="135" y="-110"/>
			<point x="135" y="-12" type="curve" smooth="yes"/>
			<point x="135" y="55"/>
			<point x="170" y="128"/>
			<point x="244" y="184" type="curve"/>
			<point x="193" y="262" type="line"/>
			<point x="101" y="188"/>
			<point x="58" y="95"/>
			<point x="58" y="8" type="curve" smooth="yes"/>
			<point x="58" y="-129"/>
			<point x="165" y="-249"/>
		</contour>
	</outline>
</glyph>
<glyph name="uni06BE" format="2">
	<advance width="600"/>
	<unicode hex="06BE"/>
	<anchor x="307" y="-100" name="bottom"/>
	<anchor x="315" y="570" name="top"/>
	<outline>
		<contour>
			<point x="349" y="-10" type="curve" smooth="yes"/>
			<point x="479" y="-10"/>
			<point x="540" y="63"/>
			<point x="540" y="151" type="curve" smooth="yes"/>
			<point x="540" y="298"/>
			<point x="384" y="400"/>
			<point x="195" y="448" type="curve"/>
			<point x="138" y="357" type="line"/>
			<point x="318" y="324"/>
			<point x="457" y="248"/>
			<point x="457" y="144" type="curve" smooth="yes"/>
			<point x="457" y="78"/>
			<point x="402" y="50"/>
			<point x="351" y="50" type="curve" smooth="yes"/>
			<point x="256" y="50"/>
			<point x="162" y="111"/>
			<point x="162" y="210" type="curve" smooth="yes"/>
			<point x="162" y="264"/>
			<point x="191" y="303"/>
			<point x="229" y="303" type="curve" smooth="yes"/>
			<point x="263" y="303"/>
			<point x="302" y="282"/>
			<point x="302" y="215" type="curve" smooth="yes"/>
			<point x="302" y="132"/>
			<point x="225" y="44"/>
			<point x="47" y="97" type="curve"/>
			<point x="30" y="0" type="line"/>
			<point x="243" y="-35"/>
			<point x="377" y="81"/>
			<point x="377" y="223" type="curve" smooth="yes"/>
			<point x="377" y="316"/>
			<point x="308" y="369"/>
			<point x="246" y="369" type="curve" smooth="yes"/>
			<point x="176" y="369"/>
			<point x="107" y="311"/>
			<point x="107" y="205" type="curve" smooth="yes"/>
			<point x="107" y="91"/>
			<point x="208" y="-10"/>
		</contour>
	</outline>
</glyph>
<glyph name="uni06D4" format="2">
	<advance width="320"/>
	<unicode hex="06D4"/>
	<outline>
		<contour>
			<point x="44" y="76" type="curve"/>
			<point x="40" y="26" type="line"/>
			<point x="109" y="23"/>
			<point x="198" y="21"/>
			<point x="272" y="26" type="curve"/>
			<point x="276" y="76" type="line"/>
			<point x="191" y="69"/>
			<point x="124" y="68"/>
		</contour>
	</outline>
</glyph>
<glyph name="uni06F4" format="2">
	<advance width="658"/>
	<unicode hex="06F4"/>
	<outline>
		<contour>
			<point x="124" y="-10" type="curve"/>
			<point x="184" y="1" type="line"/>
			<point x="206" y="138"/>
			<point x="214" y="272"/>
			<point x="210" y="440" type="curve" smooth="yes"/>
			<point x="208" y="514"/>
			<point x="203" y="551"/>
			<point x="195" y="603" type="curve"/>
			<point x="80" y="575" type="line"/>
			<point x="134" y="351"/>
			<point x="142" y="199"/>
		</contour>
		<contour>
			<point x="573" y="204" type="curve"/>
			<point x="551" y="305" type="line"/>
			<point x="440" y="240"/>
			<point x="215" y="286"/>
			<point x="210" y="440" type="curve"/>
			<point x="195" y="382" type="line"/>
			<point x="195" y="224"/>
			<point x="388" y="173"/>
		</contour>
		<contour>
			<point x="551" y="229" type="curve"/>
			<point x="551" y="305" type="line"/>
			<point x="525" y="294"/>
			<point x="482" y="288"/>
			<point x="452" y="288" type="curve" smooth="yes"/>
			<point x="381" y="288"/>
			<point x="321" y="333"/>
			<point x="321" y="409" type="curve" smooth="yes"/>
			<point x="321" y="480"/>
			<point x="382" y="505"/>
			<point x="436" y="505" type="curve" smooth="yes"/>
			<point x="482" y="505"/>
			<point x="526" y="495"/>
			<point x="566" y="473" type="curve"/>
			<point x="608" y="574" type="line"/>
			<point x="538" y="598"/>
			<point x="492" y="609"/>
			<point x="427" y="609" type="curve" smooth="yes"/>
			<point x="320" y="609"/>
			<point x="251" y="540"/>
			<point x="251" y="440" type="curve" smooth="yes"/>
			<point x="251" y="279"/>
			<point x="387" y="229"/>
		</contour>
	</outline>
</glyph>
<glyph name="uni06F5" format="2">
	<advance width="652"/>
	<unicode hex="06F5"/>
	<outline>
		<contour>
			<point x="194" y="-9" type="curve" smooth="yes"/>
			<point x="252" y="-9"/>
			<point x="285" y="28"/>
			<point x="308" y="55" type="curve"/>
			<point x="333" y="32"/>
			<point x="368" y="0"/>
			<point x="425" y="0" type="curve" smooth="yes"/>
			<point x="546" y="0"/>
			<point x="592" y="152"/>
			<point x="592" y="283" type="curve" smooth="yes"/>
			<point x="592" y="453"/>
			<point x="501" y="593"/>
			<point x="331" y="710" type="curve"/>
			<point x="280" y="593" type="line"/>
			<point x="465" y="497"/>
			<point x="532" y="320"/>
			<point x="532" y="233" type="curve" smooth="yes"/>
			<point x="532" y="177"/>
			<point x="501" y="106"/>
			<point x="425" y="106" type="curve" smooth="yes"/>
			<point x="355" y="106"/>
			<point x="352" y="156"/>
			<point x="331" y="156" type="curve" smooth="yes"/>
			<point x="308" y="156"/>
			<point x="297" y="101"/>
			<point x="239" y="101" type="curve" smooth="yes"/>
			<point x="182" y="101"/>
			<point x="137" y="130"/>
			<point x="137" y="203" type="curve" smooth="yes"/>
			<point x="137" y="356"/>
			<point x="228" y="497"/>
			<point x="357" y="650" type="curve"/>
			<point x="331" y="710" type="line"/>
			<point x="176" y="530"/>
			<point x="60" y="353"/>
			<point x="60" y="166" type="curve" smooth="yes"/>
			<point x="60" y="48"/>
			<point x="118" y="-9"/>
		</contour>
	</outline>
</glyph>
<glyph name="uni06F6" format="2">
	<advance width="528"/>
	<unicode hex="06F6"/>
	<outline>
		<contour>
			<point x="60" y="-22" type="curve"/>
			<point x="175" y="-39" type="line"/>
			<point x="175" y="175"/>
			<point x="301" y="230"/>
			<point x="432" y="230" type="curve"/>
			<point x="420" y="284" type="line"/>
			<point x="168" y="284"/>
			<point x="81" y="108"/>
		</contour>
		<contour>
			<point x="432" y="230" type="curve"/>
			<point x="421" y="320" type="line"/>
			<point x="376" y="311"/>
			<point x="352" y="309"/>
			<point x="322" y="309" type="curve" smooth="yes"/>
			<point x="262" y="309"/>
			<point x="191" y="342"/>
			<point x="191" y="415" type="curve" smooth="yes"/>
			<point x="191" y="481"/>
			<point x="252" y="506"/>
			<point x="306" y="506" type="curve" smooth="yes"/>
			<point x="352" y="506"/>
			<point x="396" y="496"/>
			<point x="436" y="474" type="curve"/>
			<point x="478" y="575" type="line"/>
			<point x="408" y="599"/>
			<point x="362" y="610"/>
			<point x="297" y="610" type="curve" smooth="yes"/>
			<point x="190" y="610"/>
			<point x="121" y="541"/>
			<point x="121" y="429" type="curve" smooth="yes"/>
			<point x="121" y="280"/>
			<point x="263" y="230"/>
		</contour>
	</outline>
</glyph>
<glyph name="daggerdbl" format="2">
	<advance width="504"/>
	<unicode hex="2021"/>
	<outline>
		<contour>
			<point x="202" y="-210" type="curve"/>
			<point x="272" y="-203" type="line"/>
			<point x="282" y="143"/>
			<point x="282" y="468"/>
			<point x="272" y="774" type="curve"/>
			<point x="187" y="757" type="line"/>
			<point x="202" y="455"/>
			<point x="207" y="132"/>
		</contour>
		<contour>
			<point x="45" y="119" type="curve"/>
			<point x="48" y="32" type="line"/>
			<point x="156" y="31"/>
			<point x="350" y="34"/>
			<point x="458" y="42" type="curve"/>
			<point x="459" y="108" type="line"/>
			<point x="349" y="107"/>
			<point x="155" y="111"/>
		</contour>
		<contour>
			<point x="459" y="413" type="curve"/>
			<point x="456" y="500" type="line"/>
			<point x="348" y="501"/>
			<point x="154" y="498"/>
			<point x="46" y="490" type="curve"/>
			<point x="45" y="424" type="line"/>
			<point x="155" y="425"/>
			<point x="349" y="421"/>
		</contour>
	</outline>
</glyph>
<glyph name="Euro" format="2">
	<advance width="673"/>
	<unicode hex="20AC"/>
	<outline>
		<contour>
			<point x="412" y="-2" type="curve" smooth="yes"/>
			<point x="477" y="-2"/>
			<point x="543" y="9"/>
			<point x="604" y="46" type="curve"/>
			<point x="603" y="109" type="line"/>
			<point x="543" y="78"/>
			<point x="490" y="64"/>
			<point x="409" y="64" type="curve" smooth="yes"/>
			<point x="287" y="64"/>
			<point x="165" y="164"/>
			<point x="165" y="353" type="curve" smooth="yes"/>
			<point x="165" y="539"/>
			<point x="292" y="661"/>
			<point x="446" y="661" type="curve" smooth="yes"/>
			<point x="501" y="661"/>
			<point x="560" y="650"/>
			<point x="617" y="622" type="curve"/>
			<point x="628" y="700" type="line"/>
			<point x="579" y="731"/>
			<point x="512" y="748"/>
			<point x="441" y="748" type="curve" smooth="yes"/>
			<point x="264" y="748"/>
			<point x="65" y="638"/>
			<point x="65" y="356" type="curve" smooth="yes"/>
			<point x="65" y="138"/>
			<point x="231" y="-2"/>
		</contour>
		<contour>
			<point x="18" y="270" type="curve"/>
			<point x="15" y="196" type="line"/>
			<point x="145" y="195"/>
			<point x="274" y="198"/>
			<point x="404" y="207" type="curve"/>
			<point x="404" y="260" type="line"/>
			<point x="275" y="258"/>
			<point x="146" y="262"/>
		</contour>
		<contour>
			<point x="413" y="394" type="curve"/>
			<point x="410" y="478" type="line"/>
			<point x="282" y="469"/>
			<point x="153" y="465"/>
			<point x="24" y="466" type="curve"/>
			<point x="24" y="406" type="line"/>
			<point x="154" y="397"/>
			<point x="283" y="393"/>
		</contour>
	</outline>
</glyph>
<glyph name="minus" format="2">
	<advance width="436"/>
	<unicode hex="2212"/>
	<outline>
		<contour>
			<point x="391" y="313" type="curve"/>
			<point x="388" y="400" type="line"/>
			<point x="280" y="401"/>
			<point x="154" y="398"/>
			<point x="46" y="390" type="curve"/>
			<point x="45" y="324" type="line"/>
			<point x="155" y="325"/>
			<point x="281" y="321"/>
		</contour>
	</outline>
</glyph>
<glyph name="notequal" format="2">
	<advance width="452"/>
	<unicode hex="2260"/>
	<outline>
		<contour>
			<point x="407" y="208" type="curve"/>
			<point x="405" y="305" type="line"/>
			<point x="297" y="306"/>
			<point x="171" y="303"/>
			<point x="63" y="294" type="curve"/>
			<point x="62" y="220" type="line"/>
			<point x="172" y="221"/>
			<point x="297" y="217"/>
		</contour>
		<contour>
			<point x="58" y="505" type="curve"/>
			<point x="55" y="408" type="line"/>
			<point x="165" y="417"/>
			<point x="290" y="421"/>
			<point x="400" y="420" type="curve"/>
			<point x="399" y="494" type="line"/>
			<point x="291" y="503"/>
			<point x="165" y="506"/>
		</contour>
		<contour>
			<point x="135" y="44" type="line"/>
			<point x="424" y="643" type="line"/>
			<point x="362" y="680" type="line"/>
			<point x="82" y="88" type="line"/>
		</contour>
	</outline>
</glyph>
<glyph name="uni3008" format="2">
	<advance width="342"/>
	<unicode hex="3008"/>
	<outline>
		<contour>
			<point x="205" y="-120" type="line"/>
			<point x="297" y="-107" type="line"/>
			<point x="91" y="328" type="line"/>
			<point x="45" y="325" type="line"/>
		</contour>
		<contour>
			<point x="91" y="322" type="line"/>
			<point x="297" y="757" type="line"/>
			<point x="205" y="770" type="line"/>
			<point x="45" y="325" type="line"/>
		</contour>
	</outline>
</glyph>
<glyph name="C_H" format="2">
	<advance width="1461"/>
	<outline>
		<contour>
			<point x="412" y="-2" type="curve" smooth="yes"/>
			<point x="477" y="-2"/>
			<point x="543" y="9"/>
			<point x="604" y="46" type="curve"/>
			<point x="603" y="109" type="line"/>
			<point x="543" y="78"/>
			<point x="490" y="64"/>
			<point x="409" y="64" type="curve" smooth="yes"/>
			<point x="287" y="64"/>
			<point x="165" y="164"/>
			<point x="165" y="333" type="curve" smooth="yes"/>
			<point x="165" y="576"/>
			<point x="435" y="736"/>
			<point x="847" y="622" type="curve"/>
			<point x="858" y="700" type="line"/>
			<point x="481" y="822"/>
			<point x="65" y="704"/>
			<point x="65" y="336" type="curve" smooth="yes"/>
			<point x="65" y="138"/>
			<point x="231" y="-2"/>
		</contour>
		<contour>
			<point x="860" y="515" type="curve"/>
			<point x="761" y="495" type="line"/>
			<point x="770" y="330"/>
			<point x="769" y="173"/>
			<point x="764" y="-9" type="curve"/>
			<point x="847" y="7" type="line"/>
			<point x="859" y="160"/>
			<point x="863" y="340"/>
		</contour>
		<contour>
			<point x="1269" y="-9" type="curve"/>
			<point x="1352" y="7" type="line"/>
			<point x="1369" y="232"/>
			<point x="1371" y="517"/>
			<point x="1356" y="757" type="curve"/>
			<point x="1246" y="734" type="line"/>
			<point x="1276" y="472"/>
			<point x="1277" y="258"/>
		</contour>
		<contour>
			<point x="1348" y="338" type="curve"/>
			<point x="1317" y="424" type="line"/>
			<point x="1177" y="368"/>
			<point x="892" y="378"/>
			<point x="791" y="392" type="curve"/>
			<point x="784" y="332" type="line"/>
			<point x="917" y="312"/>
			<point x="1189" y="309"/>
		</contour>
	</outline>
</glyph>
<glyph name="L.salt" format="2">
	<advance width="528"/>
	<anchor x="344" y="-30" name="bottom"/>
	<anchor x="306" y="325" name="center"/>
	<anchor x="204" y="800" name="top"/>
	<anchor x="439" y="720" name="topright"/>
	<outline>
		<contour>
			<point x="96" y="253" type="curve" smooth="yes"/>
			<point x="102" y="35"/>
			<point x="241" y="-13"/>
			<point x="483" y="-13" type="curve"/>
			<point x="472" y="98" type="line"/>
			<point x="198" y="47"/>
			<point x="169" y="88"/>
			<point x="177" y="287" type="curve" smooth="yes"/>
			<point x="182" y="407"/>
			<point x="196" y="511"/>
			<point x="239" y="756" type="curve"/>
			<point x="123" y="750" type="line"/>
			<point x="111" y="628"/>
			<point x="91" y="429"/>
		</contour>
	</outline>
</glyph>
<glyph name="L_A" format="2">
	<advance width="1135"/>
	<outline>
		<contour>
			<point x="115" y="15" type="curve"/>
			<point x="205" y="28" type="line"/>
			<point x="216" y="280"/>
			<point x="225" y="470"/>
			<point x="205" y="754" type="curve"/>
			<point x="95" y="745" type="line"/>
			<point x="132" y="495"/>
			<point x="128" y="235"/>
		</contour>
		<contour>
			<point x="591" y="15" type="curve"/>
			<point x="581" y="103" type="line"/>
			<point x="438" y="66"/>
			<point x="257" y="49"/>
			<point x="159" y="69" type="curve"/>
			<point x="115" y="15" type="line"/>
			<point x="283" y="-14"/>
			<point x="476" y="7"/>
		</contour>
		<contour>
			<point x="916" y="1" type="curve"/>
			<point x="1023" y="14" type="line"/>
			<point x="1074" y="435"/>
			<point x="1013" y="766"/>
			<point x="782" y="766" type="curve" smooth="yes"/>
			<point x="571" y="766"/>
			<point x="482" y="540"/>
			<point x="472" y="202" type="curve"/>
			<point x="569" y="208" type="line"/>
			<point x="564" y="445"/>
			<point x="606" y="706"/>
			<point x="781" y="706" type="curve" smooth="yes"/>
			<point x="1030" y="706"/>
			<point x="939" y="167"/>
		</contour>
		<contour>
			<point x="547" y="429" type="curve"/>
			<point x="515" y="354" type="line"/>
			<point x="685" y="339"/>
			<point x="833" y="342"/>
			<point x="981" y="370" type="curve"/>
			<point x="972" y="433" type="line"/>
			<point x="849" y="410"/>
			<point x="706" y="399"/>
		</contour>
	</outline>
</glyph>
<glyph name="f_t" format="2">
	<advance width="745"/>
	<outline>
		<contour>
			<point x="81" y="0" type="curve"/>
			<point x="184" y="-2" type="line"/>
			<point x="170" y="156"/>
			<point x="162" y="349"/>
			<point x="155" y="435" type="curve" smooth="yes"/>
			<point x="139" y="621"/>
			<point x="231" y="667"/>
			<point x="380" y="650" type="curve"/>
			<point x="373" y="742" type="line"/>
			<point x="189" y="742"/>
			<point x="75" y="650"/>
			<point x="75" y="357" type="curve" smooth="yes"/>
			<point x="75" y="262"/>
			<point x="79" y="133"/>
		</contour>
		<contour>
			<point x="600" y="386" type="curve"/>
			<point x="622" y="451" type="line"/>
			<point x="447" y="463"/>
			<point x="224" y="460"/>
			<point x="28" y="452" type="curve"/>
			<point x="41" y="401" type="line"/>
			<point x="224" y="408"/>
			<point x="436" y="404"/>
		</contour>
		<contour>
			<point x="709" y="-1" type="curve"/>
			<point x="715" y="105" type="line"/>
			<point x="591" y="93"/>
			<point x="495" y="118"/>
			<point x="496" y="264" type="curve" smooth="yes"/>
			<point x="497" y="412"/>
			<point x="511" y="548"/>
			<point x="531" y="733" type="curve"/>
			<point x="416" y="717" type="line"/>
			<point x="414" y="589"/>
			<point x="413" y="479"/>
			<point x="421" y="309" type="curve" smooth="yes"/>
			<point x="430" y="108"/>
			<point x="488" y="-16"/>
		</contour>
	</outline>
</glyph>
<glyph name="f_y" format="2">
	<advance width="925"/>
	<outline>
		<contour>
			<point x="81" y="0" type="curve"/>
			<point x="184" y="-2" type="line"/>
			<point x="170" y="156"/>
			<point x="162" y="349"/>
			<point x="155" y="435" type="curve" smooth="yes"/>
			<point x="139" y="621"/>
			<point x="231" y="667"/>
			<point x="380" y="650" type="curve"/>
			<point x="373" y="742" type="line"/>
			<point x="189" y="742"/>
			<point x="75" y="650"/>
			<point x="75" y="357" type="curve" smooth="yes"/>
			<point x="75" y="262"/>
			<point x="79" y="133"/>
		</contour>
		<contour>
			<point x="457" y="391" type="curve"/>
			<point x="479" y="456" type="line"/>
			<point x="304" y="457"/>
			<point x="224" y="459"/>
			<point x="28" y="452" type="curve"/>
			<point x="41" y="401" type="line"/>
			<point x="224" y="407"/>
			<point x="293" y="398"/>
		</contour>
		<contour>
			<point x="376" y="-129" type="curve"/>
			<point x="339" y="-226" type="line"/>
			<point x="595" y="-322"/>
			<point x="767" y="-293"/>
			<point x="819" y="-42" type="curve" smooth="yes"/>
			<point x="851" y="112"/>
			<point x="844" y="292"/>
			<point x="850" y="475" type="curve"/>
			<point x="744" y="443" type="line"/>
			<point x="744" y="183"/>
			<point x="756" y="125"/>
			<point x="735" y="-30" type="curve" smooth="yes"/>
			<point x="705" y="-256"/>
			<point x="545" y="-253"/>
		</contour>
		<contour>
			<point x="543" y="-17" type="curve" smooth="yes"/>
			<point x="706" y="-17"/>
			<point x="790" y="200"/>
			<point x="801" y="324" type="curve"/>
			<point x="744" y="443" type="line"/>
			<point x="731" y="226"/>
			<point x="659" y="38"/>
			<point x="565" y="38" type="curve" smooth="yes"/>
			<point x="466" y="38"/>
			<point x="429" y="230"/>
			<point x="479" y="456" type="curve"/>
			<point x="374" y="447" type="line"/>
			<point x="346" y="244"/>
			<point x="356" y="-17"/>
		</contour>
	</outline>
</glyph>
<glyph name="gafsarkashabove-ar" format="2">
	<advance width="0"/>
	<anchor x="55" y="537" name="_top"/>
	<outline>
		<contour>
			<point x="-90" y="443" type="curve"/>
			<point x="-48" y="382" type="line"/>
			<point x="89" y="521"/>
			<point x="180" y="670"/>
			<point x="233" y="779" type="curve"/>
			<point x="199" y="804" type="line"/>
			<point x="137" y="699"/>
			<point x="21" y="545"/>
		</contour>
	</outline>
</glyph>
<glyph name="threedotsdownbelow-ar" format="2">
	<advance width="0"/>
	<anchor x="51" y="0" name="_bottom"/>
	<anchor x="50" y="-285" name="bottom"/>
	<outline>
		<contour>
			<point x="61" y="-246" type="curve"/>
			<point x="111" y="-194" type="line"/>
			<point x="88" y="-179"/>
			<point x="70" y="-163"/>
			<point x="52" y="-143" type="curve"/>
			<point x="3" y="-196" type="line"/>
			<point x="17" y="-215"/>
			<point x="39" y="-232"/>
		</contour>
		<contour>
			<point x="2" y="-151" type="curve"/>
			<point x="57" y="-94" type="line"/>
			<point x="32" y="-77"/>
			<point x="13" y="-59"/>
			<point x="-7" y="-37" type="curve"/>
			<point x="-62" y="-96" type="line"/>
			<point x="-46" y="-117"/>
			<point x="-22" y="-136"/>
		</contour>
		<contour>
			<point x="107" y="-151" type="curve"/>
			<point x="162" y="-94" type="line"/>
			<point x="137" y="-77"/>
			<point x="118" y="-59"/>
			<point x="98" y="-37" type="curve"/>
			<point x="43" y="-96" type="line"/>
			<point x="59" y="-117"/>
			<point x="83" y="-136"/>
		</contour>
	</outline>
</glyph>
<glyph name="twodotshorizontalbelow-ar" format="2">
	<advance width="0"/>
	<anchor x="50" y="0" name="_bottom"/>
	<anchor x="50" y="-180" name="bottom"/>
	<outline>
		<contour>
			<point x="2" y="-139" type="curve"/>
			<point x="57" y="-82" type="line"/>
			<point x="32" y="-65"/>
			<point x="13" y="-47"/>
			<point x="-7" y="-25" type="curve"/>
			<point x="-62" y="-84" type="line"/>
			<point x="-46" y="-105"/>
			<point x="-22" y="-124"/>
		</contour>
		<contour>
			<point x="107" y="-139" type="curve"/>
			<point x="162" y="-82" type="line"/>
			<point x="137" y="-65"/>
			<point x="118" y="-47"/>
			<point x="98" y="-25" type="curve"/>
			<point x="43" y="-84" type="line"/>
			<point x="59" y="-105"/>
			<point x="83" y="-124"/>
		</contour>
	</outline>
</glyph>
<glyph name="uni0627.fina" format="2">
	<advance width="293"/>
	<anchor x="136" y="-100" name="bottom"/>
	<anchor x="136" y="770" name="top"/>
	<outline>
		<contour>
			<point x="293" y="0" type="curve"/>
			<point x="313" y="25" type="line"/>
			<point x="293" y="50" type="line"/>
			<point x="220" y="50"/>
			<point x="183" y="101"/>
			<point x="175" y="202" type="curve" smooth="yes"/>
			<point x="163" y="356"/>
			<point x="175" y="521"/>
			<point x="188" y="730" type="curve"/>
			<point x="80" y="718" type="line"/>
			<point x="78" y="496"/>
			<point x="83" y="325"/>
			<point x="99" y="194" type="curve" smooth="yes"/>
			<point x="118" y="42"/>
			<point x="201" y="0"/>
		</contour>
	</outline>
</glyph>
<glyph name="uni0627.fina.salt" format="2">
	<advance width="293"/>
	<anchor x="141" y="-100" name="bottom"/>
	<anchor x="131" y="720" name="top"/>
	<outline>
		<contour>
			<point x="293" y="0" type="curve"/>
			<point x="313" y="25" type="line"/>
			<point x="293" y="50" type="line"/>
			<point x="220" y="50"/>
			<point x="183" y="101"/>
			<point x="175" y="202" type="curve" smooth="yes"/>
			<point x="163" y="356"/>
			<point x="175" y="518"/>
			<point x="188" y="682" type="curve"/>
			<point x="80" y="670" type="line"/>
			<point x="78" y="493"/>
			<point x="83" y="325"/>
			<point x="99" y="194" type="curve" smooth="yes"/>
			<point x="118" y="42"/>
			<point x="201" y="0"/>
		</contour>
	</outline>
</glyph>
<glyph name="uni062D.fina" format="2">
	<advance width="620"/>
	<anchor x="341" y="-471" name="bottom"/>
	<anchor x="336" y="500" name="top"/>
	<outline>
		<contour>
			<point x="50" y="390" type="curve"/>
			<point x="72" y="285" type="line"/>
			<point x="255" y="320"/>
			<point x="389" y="252"/>
			<point x="562" y="212" type="curve"/>
			<point x="580" y="249" type="line"/>
			<point x="400" y="321"/>
			<point x="220" y="411"/>
		</contour>
		<contour>
			<point x="355" y="-420" type="curve" smooth="yes"/>
			<point x="422" y="-420"/>
			<point x="496" y="-408"/>
			<point x="580" y="-385" type="curve"/>
			<point x="535" y="-291" type="line"/>
			<point x="466" y="-317"/>
			<point x="400" y="-331"/>
			<point x="339" y="-331" type="curve" smooth="yes"/>
			<point x="213" y="-331"/>
			<point x="105" y="-273"/>
			<point x="105" y="-140" type="curve" smooth="yes"/>
			<point x="105" y="44"/>
			<point x="295" y="162"/>
			<point x="568" y="162" type="curve"/>
			<point x="580" y="249" type="line"/>
			<point x="486" y="243" type="line"/>
			<point x="247" y="243"/>
			<point x="50" y="87"/>
			<point x="50" y="-140" type="curve" smooth="yes"/>
			<point x="50" y="-339"/>
			<point x="182" y="-420"/>
		</contour>
		<contour>
			<point x="620" y="0" type="curve"/>
			<point x="640" y="25" type="line"/>
			<point x="620" y="50" type="line"/>
			<point x="537" y="50"/>
			<point x="475" y="101"/>
			<point x="475" y="202" type="curve"/>
			<point x="412" y="202" type="line"/>
			<point x="412" y="50"/>
			<point x="518" y="0"/>
		</contour>
	</outline>
</glyph>
<glyph name="uni062D.medi" format="2">
	<advance width="610"/>
	<anchor x="334" y="-100" name="bottom"/>
	<anchor x="334" y="500" name="top"/>
	<outline>
		<contour>
			<point x="0" y="50" type="curve"/>
			<point x="0" y="0" type="line"/>
			<point x="241" y="0"/>
			<point x="371" y="184"/>
			<point x="543" y="184" type="curve"/>
			<point x="550" y="289" type="line"/>
			<point x="324" y="289"/>
			<point x="211" y="50"/>
		</contour>
		<contour>
			<point x="610" y="0" type="curve"/>
			<point x="630" y="25" type="line"/>
			<point x="610" y="50" type="line"/>
			<point x="537" y="50"/>
			<point x="475" y="101"/>
			<point x="475" y="202" type="curve"/>
			<point x="412" y="202" type="line"/>
			<point x="412" y="50"/>
			<point x="518" y="0"/>
		</contour>
		<contour>
			<point x="50" y="410" type="curve"/>
			<point x="72" y="305" type="line"/>
			<point x="246" y="340"/>
			<point x="393" y="282"/>
			<point x="532" y="252" type="curve"/>
			<point x="550" y="289" type="line"/>
			<point x="415" y="349"/>
			<point x="254" y="436"/>
		</contour>
	</outline>
</glyph>
<glyph name="uni062D0631" format="2">
	<advance width="830"/>
	<anchor x="533" y="-100" name="bottom_1"/>
	<anchor x="137" y="-480" name="bottom_2"/>
	<anchor x="382" y="0" name="caret_1"/>
	<anchor x="520" y="550" name="top_1"/>
	<anchor x="117" y="450" name="top_2"/>
	<outline>
		<contour>
			<point x="-80" y="-352" type="curve"/>
			<point x="1" y="-430" type="line"/>
			<point x="111" y="-339"/>
			<point x="155" y="-221"/>
			<point x="183" y="-88" type="curve" smooth="yes"/>
			<point x="236" y="165"/>
			<point x="529" y="21"/>
			<point x="763" y="184" type="curve"/>
			<point x="770" y="289" type="line"/>
			<point x="738" y="271" type="line"/>
			<point x="449" y="76"/>
			<point x="176" y="201"/>
			<point x="107" y="-67" type="curve" smooth="yes"/>
			<point x="73" y="-201"/>
			<point x="31" y="-269"/>
		</contour>
		<contour>
			<point x="752" y="242" type="curve"/>
			<point x="770" y="289" type="line"/>
			<point x="625" y="349"/>
			<point x="474" y="436"/>
			<point x="270" y="410" type="curve"/>
			<point x="292" y="305" type="line"/>
			<point x="466" y="340"/>
			<point x="603" y="272"/>
		</contour>
	</outline>
</glyph>
<glyph name="uni062D0649" format="2">
	<advance width="880"/>
	<anchor x="745" y="-211" name="bottom_1"/>
	<anchor x="381" y="-360" name="bottom_2"/>
	<anchor x="445" y="0" name="caret_1"/>
	<anchor x="596" y="550" name="top_1"/>
	<anchor x="182" y="400" name="top_2"/>
	<outline>
		<contour>
			<point x="371" y="94" type="curve"/>
			<point x="381" y="44" type="line"/>
			<point x="578" y="79"/>
			<point x="641" y="184"/>
			<point x="823" y="184" type="curve"/>
			<point x="830" y="289" type="line"/>
			<point x="594" y="289"/>
			<point x="533" y="130"/>
		</contour>
		<contour>
			<point x="330" y="410" type="curve"/>
			<point x="352" y="305" type="line"/>
			<point x="526" y="340"/>
			<point x="663" y="292"/>
			<point x="812" y="252" type="curve"/>
			<point x="830" y="289" type="line"/>
			<point x="685" y="359"/>
			<point x="534" y="436"/>
		</contour>
		<contour>
			<point x="408" y="-310" type="curve" smooth="yes"/>
			<point x="600" y="-310"/>
			<point x="696" y="-176"/>
			<point x="696" y="-55" type="curve" smooth="yes"/>
			<point x="696" y="104"/>
			<point x="462" y="112"/>
			<point x="371" y="94" type="curve"/>
			<point x="349" y="-21" type="line"/>
			<point x="562" y="22"/>
			<point x="636" y="-35"/>
			<point x="636" y="-86" type="curve" smooth="yes"/>
			<point x="636" y="-161"/>
			<point x="548" y="-240"/>
			<point x="420" y="-240" type="curve" smooth="yes"/>
			<point x="301" y="-240"/>
			<point x="142" y="-151"/>
			<point x="141" y="110" type="curve"/>
			<point x="40" y="72" type="line"/>
			<point x="62" y="-177"/>
			<point x="225" y="-310"/>
		</contour>
	</outline>
</glyph>
<glyph name="uni062F.fina" format="2">
	<advance width="440"/>
	<anchor x="211" y="-100" name="bottom"/>
	<anchor x="211" y="550" name="top"/>
	<outline>
		<contour>
			<point x="30" y="70" type="curve"/>
			<point x="39" y="0" type="line"/>
			<point x="204" y="0"/>
			<point x="298" y="57"/>
			<point x="298" y="165" type="curve"/>
			<point x="268" y="172" type="line"/>
			<point x="268" y="80"/>
			<point x="313" y="0"/>
			<point x="440" y="0" type="curve"/>
			<point x="460" y="25" type="line"/>
			<point x="440" y="50" type="line"/>
			<point x="353" y="50"/>
			<point x="325" y="121"/>
			<point x="325" y="229" type="curve" smooth="yes"/>
			<point x="325" y="264"/>
			<point x="320" y="364"/>
			<point x="305" y="438" type="curve"/>
			<point x="199" y="417" type="line"/>
			<point x="224" y="347"/>
			<point x="249" y="230"/>
			<point x="249" y="178" type="curve" smooth="yes"/>
			<point x="249" y="70"/>
			<point x="117" y="59"/>
		</contour>
	</outline>
</glyph>
<glyph name="uni0633.fina" format="2">
	<advance width="1270"/>
	<anchor x="831" y="-100" name="bottom"/>
	<anchor x="801" y="550" name="top"/>
	<outline>
		<contour>
			<point x="305" y="-247" type="curve" smooth="yes"/>
			<point x="530" y="-247"/>
			<point x="594" y="-28"/>
			<point x="594" y="187" type="curve" smooth="yes"/>
			<point x="594" y="201"/>
			<point x="594" y="216"/>
			<point x="593" y="231" type="curve" smooth="yes"/>
			<point x="592" y="253"/>
			<point x="590" y="286"/>
			<point x="585" y="324" type="curve"/>
			<point x="471" y="306" type="line"/>
			<point x="490" y="237"/>
			<point x="498" y="177"/>
			<point x="498" y="102" type="curve" smooth="yes"/>
			<point x="498" y="-55"/>
			<point x="453" y="-192"/>
			<point x="315" y="-192" type="curve" smooth="yes"/>
			<point x="220" y="-192"/>
			<point x="136" y="-139"/>
			<point x="136" y="-26" type="curve" smooth="yes"/>
			<point x="136" y="59"/>
			<point x="186" y="135"/>
			<point x="264" y="184" type="curve"/>
			<point x="213" y="262" type="line"/>
			<point x="120" y="198"/>
			<point x="60" y="108"/>
			<point x="60" y="-6" type="curve" smooth="yes"/>
			<point x="60" y="-136"/>
			<point x="158" y="-247"/>
		</contour>
		<contour>
			<point x="691" y="-9" type="curve" smooth="yes"/>
			<point x="794" y="-9"/>
			<point x="875" y="55"/>
			<point x="875" y="248" type="curve" smooth="yes"/>
			<point x="875" y="285"/>
			<point x="875" y="302"/>
			<point x="875" y="328" type="curve"/>
			<point x="762" y="312" type="line"/>
			<point x="774" y="258"/>
			<point x="781" y="235"/>
			<point x="781" y="174" type="curve" smooth="yes"/>
			<point x="781" y="103"/>
			<point x="761" y="50"/>
			<point x="692" y="50" type="curve" smooth="yes"/>
			<point x="614" y="50"/>
			<point x="595" y="107"/>
			<point x="594" y="187" type="curve"/>
			<point x="544" y="179" type="line"/>
			<point x="544" y="59"/>
			<point x="602" y="-9"/>
		</contour>
		<contour>
			<point x="983" y="-11" type="curve" smooth="yes"/>
			<point x="1122" y="-11"/>
			<point x="1160" y="88"/>
			<point x="1160" y="211" type="curve" smooth="yes"/>
			<point x="1160" y="284"/>
			<point x="1155" y="327"/>
			<point x="1141" y="399" type="curve"/>
			<point x="1031" y="378" type="line"/>
			<point x="1050" y="319"/>
			<point x="1066" y="237"/>
			<point x="1066" y="173" type="curve" smooth="yes"/>
			<point x="1066" y="103"/>
			<point x="1046" y="50"/>
			<point x="983" y="50" type="curve" smooth="yes"/>
			<point x="897" y="50"/>
			<point x="875" y="147"/>
			<point x="875" y="248" type="curve"/>
			<point x="839" y="132" type="line"/>
			<point x="839" y="65"/>
			<point x="897" y="-11"/>
		</contour>
		<contour>
			<point x="1270" y="0" type="curve"/>
			<point x="1290" y="25" type="line"/>
			<point x="1270" y="50" type="line"/>
			<point x="1207" y="50"/>
			<point x="1160" y="110"/>
			<point x="1160" y="211" type="curve"/>
			<point x="1095" y="202" type="line"/>
			<point x="1095" y="50"/>
			<point x="1188" y="0"/>
		</contour>
	</outline>
</glyph>
<glyph name="uni06330631" format="2">
	<advance width="1168"/>
	<anchor x="787" y="-86" name="bottom_1"/>
	<anchor x="187" y="-450" name="bottom_2"/>
	<anchor x="417" y="0" name="caret_1"/>
	<anchor x="787" y="531" name="top_1"/>
	<anchor x="187" y="400" name="top_2"/>
	<outline>
		<contour>
			<point x="-80" y="-350" type="curve"/>
			<point x="1" y="-430" type="line"/>
			<point x="183" y="-282"/>
			<point x="185" y="-76"/>
			<point x="200" y="38" type="curve" smooth="yes"/>
			<point x="215" y="152"/>
			<point x="281" y="235"/>
			<point x="364" y="235" type="curve" smooth="yes"/>
			<point x="468" y="235"/>
			<point x="388" y="-9"/>
			<point x="639" y="-9" type="curve"/>
			<point x="650" y="24" type="line"/>
			<point x="640" y="50" type="line"/>
			<point x="468" y="50"/>
			<point x="581" y="304"/>
			<point x="397" y="304" type="curve" smooth="yes"/>
			<point x="296" y="304"/>
			<point x="157" y="247"/>
			<point x="122" y="18" type="curve" smooth="yes"/>
			<point x="102" y="-111"/>
			<point x="82" y="-237"/>
		</contour>
		<contour>
			<point x="640" y="50" type="curve"/>
			<point x="639" y="-9" type="line"/>
			<point x="742" y="-9"/>
			<point x="823" y="55"/>
			<point x="823" y="238" type="curve" smooth="yes"/>
			<point x="823" y="285"/>
			<point x="823" y="302"/>
			<point x="823" y="328" type="curve"/>
			<point x="710" y="312" type="line"/>
			<point x="722" y="258"/>
			<point x="729" y="225"/>
			<point x="729" y="174" type="curve" smooth="yes"/>
			<point x="729" y="103"/>
			<point x="709" y="50"/>
		</contour>
		<contour>
			<point x="931" y="-11" type="curve" smooth="yes"/>
			<point x="1067" y="-11"/>
			<point x="1112" y="86"/>
			<point x="1112" y="208" type="curve" smooth="yes"/>
			<point x="1112" y="276"/>
			<point x="1099" y="351"/>
			<point x="1079" y="422" type="curve"/>
			<point x="969" y="398" type="line"/>
			<point x="994" y="339"/>
			<point x="1018" y="250"/>
			<point x="1018" y="177" type="curve" smooth="yes"/>
			<point x="1018" y="106"/>
			<point x="996" y="50"/>
			<point x="931" y="50" type="curve" smooth="yes"/>
			<point x="845" y="50"/>
			<point x="823" y="147"/>
			<point x="823" y="238" type="curve"/>
			<point x="787" y="132" type="line"/>
			<point x="787" y="65"/>
			<point x="845" y="-11"/>
		</contour>
	</outline>
</glyph>
<glyph name="uni06350631" format="2">
	<advance width="1070"/>
	<anchor x="787" y="-86" name="bottom_1"/>
	<anchor x="187" y="-450" name="bottom_2"/>
	<anchor x="417" y="0" name="caret_1"/>
	<anchor x="787" y="531" name="top_1"/>
	<anchor x="187" y="400" name="top_2"/>
	<outline>
		<contour>
			<point x="-80" y="-350" type="curve"/>
			<point x="1" y="-430" type="line"/>
			<point x="183" y="-282"/>
			<point x="185" y="-76"/>
			<point x="200" y="38" type="curve" smooth="yes"/>
			<point x="215" y="152"/>
			<point x="281" y="235"/>
			<point x="364" y="235" type="curve" smooth="yes"/>
			<point x="468" y="235"/>
			<point x="388" y="-9"/>
			<point x="662" y="-9" type="curve"/>
			<point x="673" y="24" type="line"/>
			<point x="663" y="50" type="line"/>
			<point x="468" y="50"/>
			<point x="581" y="304"/>
			<point x="397" y="304" type="curve" smooth="yes"/>
			<point x="296" y="304"/>
			<point x="157" y="247"/>
			<point x="122" y="18" type="curve" smooth="yes"/>
			<point x="102" y="-111"/>
			<point x="82" y="-237"/>
		</contour>
		<contour>
			<point x="663" y="50" type="curve"/>
			<point x="662" y="-9" type="line"/>
			<point x="863" y="-9"/>
			<point x="1010" y="85"/>
			<point x="1010" y="238" type="curve" smooth="yes"/>
			<point x="1010" y="347"/>
			<point x="933" y="410"/>
			<point x="828" y="410" type="curve" smooth="yes"/>
			<point x="709" y="410"/>
			<point x="560" y="305"/>
			<point x="508" y="96" type="curve"/>
			<point x="550" y="78" type="line"/>
			<point x="616" y="237"/>
			<point x="709" y="325"/>
			<point x="796" y="325" type="curve" smooth="yes"/>
			<point x="860" y="325"/>
			<point x="904" y="285"/>
			<point x="904" y="220" type="curve" smooth="yes"/>
			<point x="904" y="128"/>
			<point x="813" y="50"/>
		</contour>
	</outline>
</glyph>
<glyph name="uni0637.fina" format="2">
	<advance width="710"/>
	<anchor x="327" y="-100" name="bottom"/>
	<anchor x="430" y="550" name="top"/>
	<outline>
		<contour>
			<point x="249" y="-10" type="curve" smooth="yes"/>
			<point x="464" y="-10"/>
			<point x="610" y="85"/>
			<point x="610" y="238" type="curve" smooth="yes"/>
			<point x="610" y="347"/>
			<point x="533" y="410"/>
			<point x="428" y="410" type="curve" smooth="yes"/>
			<point x="309" y="410"/>
			<point x="168" y="305"/>
			<point x="128" y="70" type="curve"/>
			<point x="170" y="52" type="line"/>
			<point x="220" y="237"/>
			<point x="309" y="325"/>
			<point x="396" y="325" type="curve" smooth="yes"/>
			<point x="460" y="325"/>
			<point x="504" y="285"/>
			<point x="504" y="220" type="curve" smooth="yes"/>
			<point x="504" y="128"/>
			<point x="413" y="55"/>
			<point x="244" y="55" type="curve" smooth="yes"/>
			<point x="141" y="55"/>
			<point x="91" y="73"/>
			<point x="46" y="88" type="curve"/>
			<point x="30" y="30" type="line"/>
			<point x="70" y="13"/>
			<point x="168" y="-10"/>
		</contour>
		<contour>
			<point x="106" y="40" type="curve"/>
			<point x="166" y="54" type="line"/>
			<point x="191" y="254"/>
			<point x="198" y="501"/>
			<point x="190" y="751" type="curve"/>
			<point x="80" y="736" type="line"/>
			<point x="112" y="494"/>
			<point x="116" y="273"/>
		</contour>
		<contour>
			<point x="710" y="0" type="curve"/>
			<point x="730" y="25" type="line"/>
			<point x="710" y="50" type="line"/>
			<point x="636" y="50"/>
			<point x="610" y="137"/>
			<point x="610" y="238" type="curve"/>
			<point x="545" y="229" type="line"/>
			<point x="545" y="77"/>
			<point x="617" y="0"/>
		</contour>
	</outline>
</glyph>
<glyph name="uni0637.medi" format="2">
	<advance width="680"/>
	<anchor x="297" y="-100" name="bottom"/>
	<anchor x="400" y="550" name="top"/>
	<outline>
		<contour>
			<point x="0" y="50" type="curve"/>
			<point x="0" y="0" type="line"/>
			<point x="434" y="0"/>
			<point x="580" y="91"/>
			<point x="580" y="238" type="curve" smooth="yes"/>
			<point x="580" y="347"/>
			<point x="503" y="410"/>
			<point x="398" y="410" type="curve" smooth="yes"/>
			<point x="279" y="410"/>
			<point x="138" y="307"/>
			<point x="93" y="50" type="curve"/>
			<point x="140" y="44" type="line"/>
			<point x="190" y="239"/>
			<point x="279" y="325"/>
			<point x="366" y="325" type="curve" smooth="yes"/>
			<point x="430" y="325"/>
			<point x="474" y="285"/>
			<point x="474" y="230" type="curve" smooth="yes"/>
			<point x="474" y="122"/>
			<point x="327" y="50"/>
		</contour>
		<contour>
			<point x="76" y="30" type="curve"/>
			<point x="136" y="44" type="line"/>
			<point x="161" y="244"/>
			<point x="168" y="501"/>
			<point x="160" y="751" type="curve"/>
			<point x="50" y="736" type="line"/>
			<point x="82" y="494"/>
			<point x="86" y="263"/>
		</contour>
		<contour>
			<point x="680" y="0" type="curve"/>
			<point x="700" y="25" type="line"/>
			<point x="680" y="50" type="line"/>
			<point x="606" y="50"/>
			<point x="580" y="137"/>
			<point x="580" y="238" type="curve"/>
			<point x="515" y="229" type="line"/>
			<point x="515" y="77"/>
			<point x="587" y="0"/>
		</contour>
	</outline>
</glyph>
<glyph name="uni0639.init" format="2">
	<advance width="520"/>
	<anchor x="262" y="-60" name="bottom"/>
	<anchor x="254" y="550" name="top"/>
	<outline>
		<contour>
			<point x="258" y="67" type="curve"/>
			<point x="470" y="86" type="line"/>
			<point x="440" y="187" type="line"/>
			<point x="381" y="155"/>
			<point x="336" y="127"/>
			<point x="249" y="127" type="curve" smooth="yes"/>
			<point x="172" y="127"/>
			<point x="118" y="176"/>
			<point x="118" y="234" type="curve" smooth="yes"/>
			<point x="118" y="290"/>
			<point x="166" y="340"/>
			<point x="241" y="340" type="curve" smooth="yes"/>
			<point x="301" y="340"/>
			<point x="357" y="306"/>
			<point x="381" y="281" type="curve"/>
			<point x="441" y="352" type="line"/>
			<point x="386" y="411"/>
			<point x="319" y="430"/>
			<point x="254" y="430" type="curve" smooth="yes"/>
			<point x="151" y="430"/>
			<point x="60" y="369"/>
			<point x="60" y="258" type="curve" smooth="yes"/>
			<point x="60" y="167"/>
			<point x="124" y="67"/>
		</contour>
		<contour>
			<point x="0" y="50" type="curve"/>
			<point x="0" y="0" type="line"/>
			<point x="148" y="0"/>
			<point x="326" y="25"/>
			<point x="470" y="86" type="curve"/>
			<point x="415" y="169" type="line"/>
			<point x="297" y="89"/>
			<point x="137" y="50"/>
		</contour>
	</outline>
</glyph>
<glyph name="uni06390631" format="2">
	<advance width="749"/>
	<anchor x="513" y="-100" name="bottom_1"/>
	<anchor x="137" y="-480" name="bottom_2"/>
	<anchor x="296" y="0" name="caret_1"/>
	<anchor x="500" y="550" name="top_1"/>
	<anchor x="117" y="450" name="top_2"/>
	<outline>
		<contour>
			<point x="506" y="114" type="curve"/>
			<point x="652" y="120" type="line"/>
			<point x="680" y="213" type="line"/>
			<point x="624" y="182"/>
			<point x="567" y="179"/>
			<point x="518" y="179" type="curve" smooth="yes"/>
			<point x="426" y="179"/>
			<point x="362" y="224"/>
			<point x="362" y="279" type="curve" smooth="yes"/>
			<point x="362" y="347"/>
			<point x="415" y="379"/>
			<point x="479" y="379" type="curve" smooth="yes"/>
			<point x="529" y="379"/>
			<point x="588" y="359"/>
			<point x="632" y="322" type="curve"/>
			<point x="699" y="397" type="line"/>
			<point x="640" y="446"/>
			<point x="566" y="470"/>
			<point x="498" y="470" type="curve" smooth="yes"/>
			<point x="393" y="470"/>
			<point x="302" y="413"/>
			<point x="302" y="303" type="curve" smooth="yes"/>
			<point x="302" y="217"/>
			<point x="366" y="114"/>
		</contour>
		<contour>
			<point x="695" y="108" type="curve"/>
			<point x="680" y="213" type="line"/>
			<point x="440" y="80"/>
			<point x="169" y="145"/>
			<point x="107" y="-67" type="curve" smooth="yes"/>
			<point x="68" y="-200"/>
			<point x="31" y="-269"/>
			<point x="-80" y="-352" type="curve"/>
			<point x="1" y="-430" type="line"/>
			<point x="111" y="-339"/>
			<point x="159" y="-221"/>
			<point x="183" y="-88" type="curve" smooth="yes"/>
			<point x="216" y="97"/>
			<point x="477" y="26"/>
		</contour>
	</outline>
</glyph>
<glyph name="uni0643.init.calt" format="2">
	<advance width="332"/>
	<anchor x="159" y="-100" name="bottom"/>
	<anchor x="163" y="780" name="top"/>
	<outline>
		<contour>
			<point x="-90" y="336" type="curve"/>
			<point x="-60" y="292" type="line"/>
			<point x="98" y="440"/>
			<point x="187" y="546"/>
			<point x="292" y="704" type="curve"/>
			<point x="199" y="761" type="line"/>
			<point x="134" y="625"/>
			<point x="9" y="440"/>
		</contour>
		<contour>
			<point x="0" y="50" type="curve"/>
			<point x="0" y="0" type="line"/>
			<point x="75" y="0"/>
			<point x="272" y="37"/>
			<point x="272" y="218" type="curve" smooth="yes"/>
			<point x="272" y="346"/>
			<point x="136" y="419"/>
			<point x="-30" y="350" type="curve"/>
			<point x="-89" y="336" type="line"/>
			<point x="-52" y="271" type="line"/>
			<point x="72" y="350"/>
			<point x="167" y="307"/>
			<point x="167" y="218" type="curve" smooth="yes"/>
			<point x="167" y="89"/>
			<point x="55" y="50"/>
		</contour>
	</outline>
</glyph>
<glyph name="uni0643.medi.calt" format="2">
	<advance width="370"/>
	<anchor x="159" y="-100" name="bottom"/>
	<anchor x="163" y="780" name="top"/>
	<outline>
		<contour>
			<point x="-90" y="336" type="curve"/>
			<point x="-60" y="292" type="line"/>
			<point x="98" y="440"/>
			<point x="187" y="546"/>
			<point x="292" y="704" type="curve"/>
			<point x="199" y="761" type="line"/>
			<point x="134" y="625"/>
			<point x="9" y="440"/>
		</contour>
		<contour>
			<point x="0" y="50" type="curve"/>
			<point x="0" y="0" type="line"/>
			<point x="59" y="0"/>
			<point x="192" y="23"/>
			<point x="247" y="119" type="curve"/>
			<point x="272" y="202" type="line"/>
			<point x="272" y="346"/>
			<point x="136" y="419"/>
			<point x="-30" y="350" type="curve"/>
			<point x="-90" y="336" type="line"/>
			<point x="-52" y="271" type="line"/>
			<point x="72" y="350"/>
			<point x="167" y="307"/>
			<point x="167" y="218" type="curve" smooth="yes"/>
			<point x="167" y="89"/>
			<point x="55" y="50"/>
		</contour>
		<contour>
			<point x="370" y="0" type="curve"/>
			<point x="390" y="25" type="line"/>
			<point x="370" y="50" type="line"/>
			<point x="314" y="50"/>
			<point x="272" y="101"/>
			<point x="272" y="202" type="curve"/>
			<point x="209" y="202" type="line"/>
			<point x="209" y="50"/>
			<point x="295" y="0"/>
		</contour>
	</outline>
</glyph>
<glyph name="uni0643.medi" format="2">
	<advance width="520"/>
	<anchor x="306" y="-100" name="bottom"/>
	<anchor x="310" y="780" name="top"/>
	<outline>
		<contour>
			<point x="60" y="336" type="curve"/>
			<point x="90" y="292" type="line"/>
			<point x="248" y="440"/>
			<point x="337" y="546"/>
			<point x="442" y="704" type="curve"/>
			<point x="349" y="761" type="line"/>
			<point x="284" y="625"/>
			<point x="159" y="440"/>
		</contour>
		<contour>
			<point x="0" y="50" type="curve"/>
			<point x="0" y="0" type="line"/>
			<point x="77" y="0"/>
			<point x="315" y="8"/>
			<point x="393" y="128" type="curve"/>
			<point x="419" y="202" type="line"/>
			<point x="419" y="346"/>
			<point x="285" y="419"/>
			<point x="119" y="350" type="curve"/>
			<point x="60" y="336" type="line"/>
			<point x="97" y="271" type="line"/>
			<point x="221" y="350"/>
			<point x="314" y="307"/>
			<point x="314" y="218" type="curve" smooth="yes"/>
			<point x="314" y="98"/>
			<point x="147" y="50"/>
		</contour>
		<contour>
			<point x="520" y="0" type="curve"/>
			<point x="540" y="25" type="line"/>
			<point x="520" y="50" type="line"/>
			<point x="461" y="50"/>
			<point x="419" y="101"/>
			<point x="419" y="202" type="curve"/>
			<point x="356" y="202" type="line"/>
			<point x="356" y="50"/>
			<point x="442" y="0"/>
		</contour>
	</outline>
</glyph>
<glyph name="uni0644.fina" format="2">
	<advance width="710"/>
	<anchor x="295" y="-297" name="bottom"/>
	<anchor x="355" y="750" name="top"/>
	<outline>
		<contour>
			<point x="298" y="-247" type="curve" smooth="yes"/>
			<point x="484" y="-247"/>
			<point x="590" y="-86"/>
			<point x="590" y="202" type="curve" smooth="yes"/>
			<point x="590" y="361"/>
			<point x="588" y="522"/>
			<point x="566" y="733" type="curve"/>
			<point x="456" y="716" type="line"/>
			<point x="488" y="536"/>
			<point x="515" y="232"/>
			<point x="505" y="75" type="curve" smooth="yes"/>
			<point x="495" y="-74"/>
			<point x="424" y="-192"/>
			<point x="308" y="-192" type="curve" smooth="yes"/>
			<point x="210" y="-192"/>
			<point x="136" y="-139"/>
			<point x="136" y="-26" type="curve" smooth="yes"/>
			<point x="136" y="59"/>
			<point x="186" y="135"/>
			<point x="264" y="184" type="curve"/>
			<point x="213" y="262" type="line"/>
			<point x="120" y="198"/>
			<point x="60" y="108"/>
			<point x="60" y="-6" type="curve" smooth="yes"/>
			<point x="60" y="-136"/>
			<point x="148" y="-247"/>
		</contour>
		<contour>
			<point x="710" y="0" type="curve"/>
			<point x="730" y="25" type="line"/>
			<point x="710" y="50" type="line"/>
			<point x="639" y="50"/>
			<point x="590" y="101"/>
			<point x="590" y="202" type="curve"/>
			<point x="530" y="202" type="line"/>
			<point x="530" y="50"/>
			<point x="618" y="0"/>
		</contour>
	</outline>
</glyph>
<glyph name="uni06440627.fina" format="2">
	<advance width="650"/>
	<anchor x="502" y="-100" name="bottom_1"/>
	<anchor x="195" y="-100" name="bottom_2"/>
	<anchor x="357" y="0" name="caret_1"/>
	<anchor x="494" y="800" name="top_1"/>
	<anchor x="175" y="700" name="top_2"/>
	<outline>
		<contour>
			<point x="127" y="81" type="curve"/>
			<point x="114" y="-19" type="line"/>
			<point x="425" y="-38"/>
			<point x="530" y="72"/>
			<point x="536" y="217" type="curve" smooth="yes"/>
			<point x="541" y="347"/>
			<point x="537" y="556"/>
			<point x="525" y="746" type="curve"/>
			<point x="415" y="719" type="line"/>
			<point x="443" y="588"/>
			<point x="476" y="335"/>
			<point x="476" y="203" type="curve" smooth="yes"/>
			<point x="476" y="123"/>
			<point x="358" y="25"/>
		</contour>
		<contour>
			<point x="375" y="133" type="curve"/>
			<point x="419" y="163" type="line"/>
			<point x="359" y="332"/>
			<point x="242" y="507"/>
			<point x="120" y="612" type="curve"/>
			<point x="50" y="529" type="line"/>
			<point x="195" y="425"/>
			<point x="291" y="299"/>
		</contour>
		<contour>
			<point x="650" y="0" type="curve"/>
			<point x="670" y="25" type="line"/>
			<point x="650" y="50" type="line"/>
			<point x="585" y="50"/>
			<point x="531" y="106"/>
			<point x="536" y="217" type="curve"/>
			<point x="482" y="212" type="line"/>
			<point x="482" y="50"/>
			<point x="560" y="0"/>
		</contour>
	</outline>
</glyph>
<glyph name="uni0644062D.init" format="2">
	<advance width="610"/>
	<anchor x="397" y="-50" name="bottom_1"/>
	<anchor x="130" y="-95" name="bottom_2"/>
	<anchor x="230" y="0" name="caret_1"/>
	<anchor x="354" y="750" name="top_1"/>
	<anchor x="121" y="650" name="top_2"/>
	<outline>
		<contour>
			<point x="0" y="50" type="curve"/>
			<point x="0" y="0" type="line"/>
			<point x="241" y="0"/>
			<point x="351" y="124"/>
			<point x="523" y="124" type="curve"/>
			<point x="530" y="229" type="line"/>
			<point x="304" y="229"/>
			<point x="211" y="50"/>
		</contour>
		<contour>
			<point x="40" y="370" type="curve"/>
			<point x="62" y="265" type="line"/>
			<point x="236" y="300"/>
			<point x="373" y="192"/>
			<point x="512" y="192" type="curve"/>
			<point x="530" y="229" type="line"/>
			<point x="425" y="245"/>
			<point x="311" y="337"/>
			<point x="169" y="365" type="curve" smooth="yes"/>
			<point x="129" y="373"/>
			<point x="86" y="376"/>
		</contour>
		<contour>
			<point x="169" y="365" type="curve"/>
			<point x="180" y="320" type="line"/>
			<point x="379" y="289"/>
			<point x="408" y="408"/>
			<point x="410" y="469" type="curve" smooth="yes"/>
			<point x="413" y="546"/>
			<point x="407" y="626"/>
			<point x="394" y="733" type="curve"/>
			<point x="284" y="716" type="line"/>
			<point x="313" y="608"/>
			<point x="331" y="550"/>
			<point x="331" y="460" type="curve" smooth="yes"/>
			<point x="331" y="378"/>
			<point x="272" y="346"/>
		</contour>
	</outline>
</glyph>
<glyph name="uni0645.fina" format="2">
	<advance width="680"/>
	<anchor x="402" y="-105" name="bottom"/>
	<anchor x="361" y="550" name="top"/>
	<outline>
		<contour>
			<point x="102" y="-400" type="curve"/>
			<point x="206" y="-365" type="line"/>
			<point x="164" y="-244"/>
			<point x="147" y="-148"/>
			<point x="147" y="-93" type="curve" smooth="yes"/>
			<point x="147" y="-42"/>
			<point x="162" y="11"/>
			<point x="249" y="11" type="curve" smooth="yes"/>
			<point x="333" y="11"/>
			<point x="406" y="-9"/>
			<point x="452" y="-9" type="curve" smooth="yes"/>
			<point x="512" y="-9"/>
			<point x="590" y="25"/>
			<point x="590" y="141" type="curve" smooth="yes"/>
			<point x="590" y="154"/>
			<point x="589" y="166"/>
			<point x="587" y="178" type="curve" smooth="yes"/>
			<point x="573" y="291"/>
			<point x="477" y="400"/>
			<point x="358" y="400" type="curve" smooth="yes"/>
			<point x="198" y="400"/>
			<point x="146" y="157"/>
			<point x="146" y="45" type="curve"/>
			<point x="216" y="63" type="line"/>
			<point x="216" y="147"/>
			<point x="262" y="320"/>
			<point x="358" y="320" type="curve" smooth="yes"/>
			<point x="429" y="320"/>
			<point x="485" y="241"/>
			<point x="485" y="143" type="curve" smooth="yes"/>
			<point x="485" y="35"/>
			<point x="332" y="72"/>
			<point x="194" y="72" type="curve" smooth="yes"/>
			<point x="117" y="72"/>
			<point x="65" y="-10"/>
			<point x="65" y="-112" type="curve" smooth="yes"/>
			<point x="65" y="-192"/>
			<point x="76" y="-277"/>
		</contour>
		<contour>
			<point x="680" y="0" type="curve"/>
			<point x="700" y="25" type="line"/>
			<point x="680" y="50" type="line"/>
			<point x="629" y="50"/>
			<point x="599" y="89"/>
			<point x="587" y="178" type="curve"/>
			<point x="521" y="202" type="line"/>
			<point x="521" y="50"/>
			<point x="605" y="0"/>
		</contour>
	</outline>
</glyph>
<glyph name="uni06450631" format="2">
	<advance width="840"/>
	<anchor x="552" y="-86" name="bottom_1"/>
	<anchor x="137" y="-480" name="bottom_2"/>
	<anchor x="329" y="0" name="caret_1"/>
	<anchor x="552" y="531" name="top_1"/>
	<anchor x="137" y="400" name="top_2"/>
	<outline>
		<contour>
			<point x="-80" y="-352" type="curve"/>
			<point x="1" y="-430" type="line"/>
			<point x="111" y="-339"/>
			<point x="161" y="-220"/>
			<point x="183" y="-88" type="curve" smooth="yes"/>
			<point x="196" y="-11"/>
			<point x="231" y="31"/>
			<point x="336" y="31" type="curve" smooth="yes"/>
			<point x="425" y="31"/>
			<point x="489" y="1"/>
			<point x="642" y="1" type="curve" smooth="yes"/>
			<point x="709" y="1"/>
			<point x="780" y="25"/>
			<point x="780" y="141" type="curve" smooth="yes"/>
			<point x="780" y="278"/>
			<point x="690" y="410"/>
			<point x="548" y="410" type="curve" smooth="yes"/>
			<point x="388" y="410"/>
			<point x="336" y="167"/>
			<point x="336" y="55" type="curve"/>
			<point x="406" y="73" type="line"/>
			<point x="406" y="157"/>
			<point x="452" y="330"/>
			<point x="548" y="330" type="curve" smooth="yes"/>
			<point x="619" y="330"/>
			<point x="676" y="247"/>
			<point x="676" y="149" type="curve" smooth="yes"/>
			<point x="676" y="41"/>
			<point x="509" y="92"/>
			<point x="347" y="91" type="curve" smooth="yes"/>
			<point x="201" y="90"/>
			<point x="132" y="40"/>
			<point x="107" y="-67" type="curve" smooth="yes"/>
			<point x="76" y="-199"/>
			<point x="31" y="-269"/>
		</contour>
	</outline>
</glyph>
<glyph name="uni0649.fina.salt" format="2">
	<advance width="736"/>
	<anchor x="410" y="-360" name="bottom"/>
	<anchor x="410" y="300" name="top"/>
	<outline>
		<contour>
			<point x="408" y="-310" type="curve" smooth="yes"/>
			<point x="600" y="-310"/>
			<point x="696" y="-176"/>
			<point x="696" y="-65" type="curve" smooth="yes"/>
			<point x="696" y="64"/>
			<point x="560" y="50"/>
			<point x="421" y="50" type="curve"/>
			<point x="401" y="-55" type="line"/>
			<point x="569" y="-34"/>
			<point x="636" y="-45"/>
			<point x="636" y="-96" type="curve" smooth="yes"/>
			<point x="636" y="-161"/>
			<point x="548" y="-240"/>
			<point x="420" y="-240" type="curve" smooth="yes"/>
			<point x="301" y="-240"/>
			<point x="142" y="-151"/>
			<point x="141" y="110" type="curve"/>
			<point x="40" y="72" type="line"/>
			<point x="62" y="-177"/>
			<point x="225" y="-310"/>
		</contour>
	</outline>
</glyph>
<glyph name="uni0651064C" format="2">
	<advance width="0"/>
	<anchor x="50" y="401" name="_top"/>
	<anchor x="50" y="766" name="top"/>
	<outline>
		<contour>
			<point x="-3" y="453" type="curve" smooth="yes"/>
			<point x="46" y="453"/>
			<point x="64" y="490"/>
			<point x="64" y="513" type="curve"/>
			<point x="41" y="511" type="line"/>
			<point x="51" y="489"/>
			<point x="66" y="472"/>
			<point x="98" y="472" type="curve" smooth="yes"/>
			<point x="170" y="472"/>
			<point x="178" y="561"/>
			<point x="171" y="609" type="curve"/>
			<point x="117" y="599" type="line"/>
			<point x="123" y="575"/>
			<point x="128" y="553"/>
			<point x="128" y="536" type="curve" smooth="yes"/>
			<point x="128" y="517"/>
			<point x="121" y="504"/>
			<point x="103" y="504" type="curve" smooth="yes"/>
			<point x="88" y="504"/>
			<point x="83" y="512"/>
			<point x="81" y="524" type="curve" smooth="yes"/>
			<point x="79" y="536"/>
			<point x="80" y="551"/>
			<point x="80" y="568" type="curve"/>
			<point x="26" y="556" type="line"/>
			<point x="29" y="543"/>
			<point x="32" y="529"/>
			<point x="32" y="517" type="curve" smooth="yes"/>
			<point x="32" y="499"/>
			<point x="26" y="485"/>
			<point x="6" y="485" type="curve" smooth="yes"/>
			<point x="-14" y="485"/>
			<point x="-19" y="498"/>
			<point x="-19" y="519" type="curve" smooth="yes"/>
			<point x="-19" y="532"/>
			<point x="-17" y="547"/>
			<point x="-15" y="563" type="curve"/>
			<point x="-69" y="553" type="line"/>
			<point x="-74" y="492"/>
			<point x="-42" y="453"/>
		</contour>
		<contour>
			<point x="-77" y="605" type="curve"/>
			<point x="-23" y="605" type="line"/>
			<point x="-23" y="625"/>
			<point x="-22" y="639"/>
			<point x="-18" y="660" type="curve"/>
			<point x="1" y="633"/>
			<point x="31" y="616"/>
			<point x="69" y="616" type="curve" smooth="yes"/>
			<point x="142" y="616"/>
			<point x="164" y="660"/>
			<point x="164" y="697" type="curve" smooth="yes"/>
			<point x="164" y="738"/>
			<point x="141" y="771"/>
			<point x="98" y="771" type="curve" smooth="yes"/>
			<point x="54" y="771"/>
			<point x="28" y="740"/>
			<point x="28" y="697" type="curve" smooth="yes"/>
			<point x="28" y="665"/>
			<point x="47" y="639"/>
			<point x="70" y="621" type="curve"/>
			<point x="102" y="627" type="line"/>
			<point x="83" y="641"/>
			<point x="62" y="660"/>
			<point x="62" y="685" type="curve" smooth="yes"/>
			<point x="62" y="702"/>
			<point x="72" y="715"/>
			<point x="89" y="715" type="curve" smooth="yes"/>
			<point x="104" y="715"/>
			<point x="116" y="704"/>
			<point x="116" y="686" type="curve" smooth="yes"/>
			<point x="116" y="664"/>
			<point x="96" y="647"/>
			<point x="66" y="647" type="curve" smooth="yes"/>
			<point x="26" y="647"/>
			<point x="-2" y="677"/>
			<point x="-12" y="718" type="curve"/>
			<point x="-32" y="722" type="line"/>
			<point x="-61" y="692"/>
			<point x="-73" y="654"/>
		</contour>
	</outline>
</glyph>
<glyph name="uni0651064F" format="2">
	<advance width="0"/>
	<anchor x="50" y="420" name="_top"/>
	<anchor x="50" y="776" name="top"/>
	<outline>
		<contour>
			<point x="-3" y="462" type="curve" smooth="yes"/>
			<point x="46" y="462"/>
			<point x="64" y="499"/>
			<point x="64" y="522" type="curve"/>
			<point x="41" y="520" type="line"/>
			<point x="51" y="498"/>
			<point x="66" y="481"/>
			<point x="98" y="481" type="curve" smooth="yes"/>
			<point x="170" y="481"/>
			<point x="178" y="570"/>
			<point x="171" y="618" type="curve"/>
			<point x="117" y="608" type="line"/>
			<point x="123" y="584"/>
			<point x="128" y="562"/>
			<point x="128" y="545" type="curve" smooth="yes"/>
			<point x="128" y="526"/>
			<point x="121" y="513"/>
			<point x="103" y="513" type="curve" smooth="yes"/>
			<point x="88" y="513"/>
			<point x="83" y="521"/>
			<point x="81" y="533" type="curve" smooth="yes"/>
			<point x="79" y="545"/>
			<point x="80" y="560"/>
			<point x="80" y="577" type="curve"/>
			<point x="26" y="565" type="line"/>
			<point x="29" y="552"/>
			<point x="32" y="538"/>
			<point x="32" y="526" type="curve" smooth="yes"/>
			<point x="32" y="508"/>
			<point x="26" y="494"/>
			<point x="6" y="494" type="curve" smooth="yes"/>
			<point x="-14" y="494"/>
			<point x="-19" y="507"/>
			<point x="-19" y="528" type="curve" smooth="yes"/>
			<point x="-19" y="541"/>
			<point x="-17" y="556"/>
			<point x="-15" y="572" type="curve"/>
			<point x="-69" y="562" type="line"/>
			<point x="-74" y="501"/>
			<point x="-42" y="462"/>
		</contour>
		<contour>
			<point x="-71" y="656" type="curve"/>
			<point x="-71" y="602" type="line"/>
			<point x="12" y="615"/>
			<point x="82" y="623"/>
			<point x="124" y="645" type="curve" smooth="yes"/>
			<point x="156" y="662"/>
			<point x="171" y="688"/>
			<point x="171" y="723" type="curve" smooth="yes"/>
			<point x="171" y="757"/>
			<point x="148" y="790"/>
			<point x="105" y="790" type="curve" smooth="yes"/>
			<point x="61" y="790"/>
			<point x="35" y="759"/>
			<point x="35" y="716" type="curve" smooth="yes"/>
			<point x="35" y="684"/>
			<point x="54" y="658"/>
			<point x="77" y="640" type="curve"/>
			<point x="112" y="646" type="line"/>
			<point x="93" y="660"/>
			<point x="72" y="681"/>
			<point x="72" y="706" type="curve" smooth="yes"/>
			<point x="72" y="723"/>
			<point x="84" y="736"/>
			<point x="102" y="736" type="curve" smooth="yes"/>
			<point x="117" y="736"/>
			<point x="129" y="725"/>
			<point x="129" y="711" type="curve" smooth="yes"/>
			<point x="129" y="688"/>
			<point x="111" y="675"/>
			<point x="73" y="669" type="curve" smooth="yes"/>
			<point x="28" y="662"/>
			<point x="2" y="661"/>
		</contour>
	</outline>
</glyph>
<glyph name="uni0654064C" format="2">
	<advance width="0"/>
	<anchor x="41" y="544" name="_top"/>
	<anchor x="41" y="954" name="top"/>
	<outline>
		<contour>
			<point x="31" y="639" type="curve"/>
			<point x="49" y="633" type="line"/>
			<point x="142" y="635" type="line"/>
			<point x="142" y="686" type="line"/>
			<point x="108" y="671"/>
			<point x="96" y="666"/>
			<point x="61" y="659" type="curve" smooth="yes"/>
			<point x="9" y="649"/>
			<point x="-20" y="668"/>
			<point x="-20" y="693" type="curve" smooth="yes"/>
			<point x="-20" y="713"/>
			<point x="1" y="724"/>
			<point x="23" y="724" type="curve" smooth="yes"/>
			<point x="45" y="724"/>
			<point x="62" y="716"/>
			<point x="77" y="703" type="curve"/>
			<point x="121" y="745" type="line"/>
			<point x="95" y="771"/>
			<point x="61" y="777"/>
			<point x="30" y="777" type="curve" smooth="yes"/>
			<point x="-20" y="777"/>
			<point x="-65" y="752"/>
			<point x="-65" y="708" type="curve" smooth="yes"/>
			<point x="-65" y="671"/>
			<point x="-33" y="639"/>
		</contour>
		<contour>
			<point x="-73" y="631" type="curve"/>
			<point x="-73" y="560" type="line"/>
			<point x="21" y="598"/>
			<point x="61" y="611"/>
			<point x="142" y="635" type="curve"/>
			<point x="142" y="672" type="line"/>
			<point x="65" y="659"/>
			<point x="12" y="649"/>
		</contour>
		<contour>
			<point x="-86" y="795" type="curve"/>
			<point x="-32" y="795" type="line"/>
			<point x="-32" y="815"/>
			<point x="-31" y="829"/>
			<point x="-27" y="850" type="curve"/>
			<point x="-8" y="823"/>
			<point x="22" y="806"/>
			<point x="60" y="806" type="curve" smooth="yes"/>
			<point x="133" y="806"/>
			<point x="155" y="850"/>
			<point x="155" y="887" type="curve" smooth="yes"/>
			<point x="155" y="928"/>
			<point x="132" y="961"/>
			<point x="89" y="961" type="curve" smooth="yes"/>
			<point x="45" y="961"/>
			<point x="19" y="930"/>
			<point x="19" y="887" type="curve" smooth="yes"/>
			<point x="19" y="855"/>
			<point x="38" y="829"/>
			<point x="61" y="811" type="curve"/>
			<point x="93" y="817" type="line"/>
			<point x="74" y="831"/>
			<point x="53" y="850"/>
			<point x="53" y="875" type="curve" smooth="yes"/>
			<point x="53" y="892"/>
			<point x="63" y="905"/>
			<point x="80" y="905" type="curve" smooth="yes"/>
			<point x="95" y="905"/>
			<point x="107" y="894"/>
			<point x="107" y="876" type="curve" smooth="yes"/>
			<point x="107" y="854"/>
			<point x="87" y="837"/>
			<point x="57" y="837" type="curve" smooth="yes"/>
			<point x="17" y="837"/>
			<point x="-11" y="867"/>
			<point x="-21" y="908" type="curve"/>
			<point x="-41" y="912" type="line"/>
			<point x="-70" y="882"/>
			<point x="-82" y="844"/>
		</contour>
	</outline>
</glyph>
<glyph name="uni0654064E" format="2">
	<advance width="0"/>
	<anchor x="50" y="594" name="_top"/>
	<anchor x="50" y="919" name="top"/>
	<outline>
		<contour>
			<point x="171" y="672" type="curve"/>
			<point x="171" y="726" type="line"/>
			<point x="65" y="698"/>
			<point x="20" y="686"/>
			<point x="-71" y="662" type="curve"/>
			<point x="-71" y="628" type="line"/>
			<point x="16" y="644"/>
			<point x="75" y="655"/>
		</contour>
		<contour>
			<point x="42" y="786" type="curve"/>
			<point x="60" y="780" type="line"/>
			<point x="153" y="782" type="line"/>
			<point x="153" y="833" type="line"/>
			<point x="119" y="818"/>
			<point x="107" y="813"/>
			<point x="72" y="806" type="curve" smooth="yes"/>
			<point x="20" y="796"/>
			<point x="-9" y="815"/>
			<point x="-9" y="840" type="curve" smooth="yes"/>
			<point x="-9" y="860"/>
			<point x="12" y="871"/>
			<point x="34" y="871" type="curve" smooth="yes"/>
			<point x="56" y="871"/>
			<point x="73" y="863"/>
			<point x="88" y="850" type="curve"/>
			<point x="132" y="892" type="line"/>
			<point x="106" y="918"/>
			<point x="72" y="924"/>
			<point x="41" y="924" type="curve" smooth="yes"/>
			<point x="-9" y="924"/>
			<point x="-54" y="899"/>
			<point x="-54" y="855" type="curve" smooth="yes"/>
			<point x="-54" y="818"/>
			<point x="-22" y="786"/>
		</contour>
		<contour>
			<point x="-62" y="778" type="curve"/>
			<point x="-62" y="707" type="line"/>
			<point x="32" y="745"/>
			<point x="72" y="758"/>
			<point x="153" y="782" type="curve"/>
			<point x="153" y="819" type="line"/>
			<point x="76" y="806"/>
			<point x="23" y="796"/>
		</contour>
	</outline>
</glyph>
<glyph name="uni0654064F" format="2">
	<advance width="0"/>
	<anchor x="50" y="556" name="_top"/>
	<anchor x="50" y="963" name="top"/>
	<outline>
		<contour>
			<point x="40" y="639" type="curve"/>
			<point x="58" y="633" type="line"/>
			<point x="151" y="635" type="line"/>
			<point x="151" y="686" type="line"/>
			<point x="117" y="671"/>
			<point x="105" y="666"/>
			<point x="70" y="659" type="curve" smooth="yes"/>
			<point x="18" y="649"/>
			<point x="-11" y="668"/>
			<point x="-11" y="693" type="curve" smooth="yes"/>
			<point x="-11" y="713"/>
			<point x="10" y="724"/>
			<point x="32" y="724" type="curve" smooth="yes"/>
			<point x="54" y="724"/>
			<point x="71" y="716"/>
			<point x="86" y="703" type="curve"/>
			<point x="130" y="745" type="line"/>
			<point x="104" y="771"/>
			<point x="70" y="777"/>
			<point x="39" y="777" type="curve" smooth="yes"/>
			<point x="-11" y="777"/>
			<point x="-56" y="752"/>
			<point x="-56" y="708" type="curve" smooth="yes"/>
			<point x="-56" y="671"/>
			<point x="-24" y="639"/>
		</contour>
		<contour>
			<point x="-64" y="631" type="curve"/>
			<point x="-64" y="560" type="line"/>
			<point x="30" y="598"/>
			<point x="70" y="611"/>
			<point x="151" y="635" type="curve"/>
			<point x="151" y="672" type="line"/>
			<point x="74" y="659"/>
			<point x="21" y="649"/>
		</contour>
		<contour>
			<point x="-71" y="850" type="curve"/>
			<point x="-71" y="796" type="line"/>
			<point x="12" y="809"/>
			<point x="82" y="817"/>
			<point x="124" y="839" type="curve" smooth="yes"/>
			<point x="156" y="856"/>
			<point x="171" y="882"/>
			<point x="171" y="917" type="curve" smooth="yes"/>
			<point x="171" y="951"/>
			<point x="148" y="984"/>
			<point x="105" y="984" type="curve" smooth="yes"/>
			<point x="61" y="984"/>
			<point x="35" y="953"/>
			<point x="35" y="910" type="curve" smooth="yes"/>
			<point x="35" y="878"/>
			<point x="54" y="852"/>
			<point x="77" y="834" type="curve"/>
			<point x="112" y="840" type="line"/>
			<point x="93" y="854"/>
			<point x="72" y="875"/>
			<point x="72" y="900" type="curve" smooth="yes"/>
			<point x="72" y="917"/>
			<point x="84" y="930"/>
			<point x="102" y="930" type="curve" smooth="yes"/>
			<point x="117" y="930"/>
			<point x="129" y="919"/>
			<point x="129" y="905" type="curve" smooth="yes"/>
			<point x="129" y="882"/>
			<point x="111" y="869"/>
			<point x="73" y="863" type="curve" smooth="yes"/>
			<point x="28" y="856"/>
			<point x="2" y="855"/>
		</contour>
	</outline>
</glyph>
<glyph name="uni06540652" format="2">
	<advance width="0"/>
	<anchor x="49" y="359" name="_top"/>
	<anchor x="50" y="774" name="top"/>
	<outline>
		<contour>
			<point x="33" y="395" type="curve" smooth="yes"/>
			<point x="96" y="395"/>
			<point x="152" y="431"/>
			<point x="152" y="489" type="curve" smooth="yes"/>
			<point x="152" y="532"/>
			<point x="117" y="561"/>
			<point x="64" y="561" type="curve" smooth="yes"/>
			<point x="15" y="561"/>
			<point x="-48" y="524"/>
			<point x="-48" y="461" type="curve" smooth="yes"/>
			<point x="-48" y="426"/>
			<point x="-20" y="395"/>
		</contour>
		<contour>
			<point x="33" y="431" type="curve" smooth="yes"/>
			<point x="3" y="431"/>
			<point x="-14" y="443"/>
			<point x="-14" y="465" type="curve" smooth="yes"/>
			<point x="-14" y="487"/>
			<point x="16" y="514"/>
			<point x="51" y="514" type="curve" smooth="yes"/>
			<point x="80" y="514"/>
			<point x="95" y="498"/>
			<point x="95" y="477" type="curve" smooth="yes"/>
			<point x="95" y="457"/>
			<point x="72" y="431"/>
		</contour>
		<contour>
			<point x="48" y="634" type="curve"/>
			<point x="66" y="628" type="line"/>
			<point x="159" y="630" type="line"/>
			<point x="159" y="681" type="line"/>
			<point x="125" y="666"/>
			<point x="113" y="661"/>
			<point x="78" y="654" type="curve" smooth="yes"/>
			<point x="26" y="644"/>
			<point x="-3" y="663"/>
			<point x="-3" y="688" type="curve" smooth="yes"/>
			<point x="-3" y="708"/>
			<point x="18" y="719"/>
			<point x="40" y="719" type="curve" smooth="yes"/>
			<point x="62" y="719"/>
			<point x="79" y="711"/>
			<point x="94" y="698" type="curve"/>
			<point x="138" y="740" type="line"/>
			<point x="112" y="766"/>
			<point x="78" y="772"/>
			<point x="47" y="772" type="curve" smooth="yes"/>
			<point x="-3" y="772"/>
			<point x="-48" y="747"/>
			<point x="-48" y="703" type="curve" smooth="yes"/>
			<point x="-48" y="666"/>
			<point x="-16" y="634"/>
		</contour>
		<contour>
			<point x="-56" y="626" type="curve"/>
			<point x="-56" y="555" type="line"/>
			<point x="38" y="593"/>
			<point x="78" y="606"/>
			<point x="159" y="630" type="curve"/>
			<point x="159" y="667" type="line"/>
			<point x="82" y="654"/>
			<point x="29" y="644"/>
		</contour>
	</outline>
</glyph>
<glyph name="uni0655064D" format="2">
	<advance width="0"/>
	<anchor x="50" y="0" name="_bottom"/>
	<anchor x="50" y="-413" name="bottom"/>
	<outline>
		<contour>
			<point x="-71" y="-356" type="curve"/>
			<point x="-71" y="-410" type="line"/>
			<point x="35" y="-382"/>
			<point x="80" y="-370"/>
			<point x="171" y="-346" type="curve"/>
			<point x="171" y="-312" type="line"/>
			<point x="84" y="-328"/>
			<point x="25" y="-339"/>
		</contour>
		<contour>
			<point x="-71" y="-286" type="curve"/>
			<point x="-71" y="-320" type="line"/>
			<point x="16" y="-304"/>
			<point x="75" y="-293"/>
			<point x="171" y="-276" type="curve"/>
			<point x="171" y="-222" type="line"/>
			<point x="65" y="-250"/>
			<point x="20" y="-262"/>
		</contour>
		<contour>
			<point x="-74" y="-172" type="curve"/>
			<point x="-74" y="-243" type="line"/>
			<point x="20" y="-205"/>
			<point x="60" y="-192"/>
			<point x="141" y="-168" type="curve"/>
			<point x="141" y="-131" type="line"/>
			<point x="64" y="-144"/>
			<point x="11" y="-154"/>
		</contour>
		<contour>
			<point x="30" y="-164" type="curve"/>
			<point x="48" y="-170" type="line"/>
			<point x="141" y="-168" type="line"/>
			<point x="141" y="-117" type="line"/>
			<point x="107" y="-132"/>
			<point x="95" y="-137"/>
			<point x="60" y="-144" type="curve" smooth="yes"/>
			<point x="8" y="-154"/>
			<point x="-21" y="-135"/>
			<point x="-21" y="-110" type="curve" smooth="yes"/>
			<point x="-21" y="-90"/>
			<point x="0" y="-79"/>
			<point x="22" y="-79" type="curve" smooth="yes"/>
			<point x="44" y="-79"/>
			<point x="61" y="-87"/>
			<point x="76" y="-100" type="curve"/>
			<point x="120" y="-58" type="line"/>
			<point x="94" y="-32"/>
			<point x="60" y="-26"/>
			<point x="29" y="-26" type="curve" smooth="yes"/>
			<point x="-21" y="-26"/>
			<point x="-66" y="-51"/>
			<point x="-66" y="-95" type="curve" smooth="yes"/>
			<point x="-66" y="-132"/>
			<point x="-34" y="-164"/>
		</contour>
	</outline>
</glyph>
<glyph name="uni066E0631.fina" format="2">
	<advance width="640"/>
	<anchor x="482" y="-86" name="bottom_1"/>
	<anchor x="137" y="-450" name="bottom_2"/>
	<anchor x="293" y="0" name="caret_1"/>
	<anchor x="482" y="531" name="top_1"/>
	<anchor x="137" y="400" name="top_2"/>
	<outline>
		<contour>
			<point x="-80" y="-350" type="curve"/>
			<point x="1" y="-430" type="line"/>
			<point x="183" y="-282"/>
			<point x="185" y="-76"/>
			<point x="200" y="38" type="curve" smooth="yes"/>
			<point x="215" y="152"/>
			<point x="281" y="235"/>
			<point x="364" y="235" type="curve" smooth="yes"/>
			<point x="468" y="235"/>
			<point x="379" y="0"/>
			<point x="640" y="0" type="curve"/>
			<point x="660" y="25" type="line"/>
			<point x="640" y="50" type="line"/>
			<point x="468" y="50"/>
			<point x="581" y="304"/>
			<point x="397" y="304" type="curve" smooth="yes"/>
			<point x="296" y="304"/>
			<point x="157" y="247"/>
			<point x="122" y="18" type="curve" smooth="yes"/>
			<point x="102" y="-111"/>
			<point x="82" y="-237"/>
		</contour>
	</outline>
</glyph>
<glyph name="uni06A1.fina" format="2">
	<advance width="960"/>
	<anchor x="664" y="-100" name="bottom"/>
	<anchor x="675" y="550" name="top"/>
	<outline>
		<contour>
			<point x="496" y="-7" type="curve" smooth="yes"/>
			<point x="671" y="-7"/>
			<point x="881" y="100"/>
			<point x="881" y="255" type="curve" smooth="yes"/>
			<point x="881" y="368"/>
			<point x="787" y="432"/>
			<point x="682" y="432" type="curve" smooth="yes"/>
			<point x="524" y="432"/>
			<point x="460" y="337"/>
			<point x="460" y="251" type="curve" smooth="yes"/>
			<point x="460" y="76"/>
			<point x="732" y="0"/>
			<point x="960" y="0" type="curve"/>
			<point x="980" y="25" type="line"/>
			<point x="960" y="50" type="line"/>
			<point x="745" y="50"/>
			<point x="530" y="128"/>
			<point x="530" y="251" type="curve" smooth="yes"/>
			<point x="530" y="305"/>
			<point x="580" y="348"/>
			<point x="655" y="348" type="curve" smooth="yes"/>
			<point x="725" y="348"/>
			<point x="776" y="315"/>
			<point x="776" y="255" type="curve" smooth="yes"/>
			<point x="776" y="153"/>
			<point x="642" y="50"/>
			<point x="499" y="50" type="curve" smooth="yes"/>
			<point x="353" y="50"/>
			<point x="200" y="95"/>
			<point x="128" y="280" type="curve"/>
			<point x="30" y="220" type="line"/>
			<point x="145" y="37"/>
			<point x="314" y="-7"/>
		</contour>
	</outline>
</glyph>
<glyph name="uni06A9.fina" format="2">
	<advance width="850"/>
	<anchor x="529" y="-100" name="bottom"/>
	<anchor x="533" y="780" name="top"/>
	<outline>
		<contour>
			<point x="446" y="-7" type="curve" smooth="yes"/>
			<point x="524" y="-7"/>
			<point x="660" y="19"/>
			<point x="719" y="113" type="curve"/>
			<point x="748" y="202" type="line"/>
			<point x="748" y="346"/>
			<point x="612" y="419"/>
			<point x="446" y="350" type="curve"/>
			<point x="387" y="336" type="line"/>
			<point x="424" y="271" type="line"/>
			<point x="548" y="350"/>
			<point x="643" y="297"/>
			<point x="643" y="208" type="curve" smooth="yes"/>
			<point x="643" y="89"/>
			<point x="533" y="50"/>
			<point x="449" y="50" type="curve" smooth="yes"/>
			<point x="364" y="50"/>
			<point x="205" y="95"/>
			<point x="135" y="280" type="curve"/>
			<point x="40" y="220" type="line"/>
			<point x="151" y="37"/>
			<point x="327" y="-7"/>
		</contour>
		<contour>
			<point x="850" y="0" type="curve"/>
			<point x="870" y="25" type="line"/>
			<point x="850" y="50" type="line"/>
			<point x="791" y="50"/>
			<point x="748" y="101"/>
			<point x="748" y="202" type="curve"/>
			<point x="685" y="202" type="line"/>
			<point x="685" y="50"/>
			<point x="772" y="0"/>
		</contour>
		<contour>
			<point x="387" y="336" type="curve"/>
			<point x="417" y="292" type="line"/>
			<point x="575" y="440"/>
			<point x="664" y="546"/>
			<point x="769" y="704" type="curve"/>
			<point x="676" y="761" type="line"/>
			<point x="611" y="625"/>
			<point x="486" y="440"/>
		</contour>
	</outline>
</glyph>
<glyph name="uni06BA.fina" format="2">
	<advance width="682"/>
	<anchor x="306" y="-297" name="bottom"/>
	<anchor x="306" y="550" name="top"/>
	<outline>
		<contour>
			<point x="305" y="-247" type="curve" smooth="yes"/>
			<point x="534" y="-247"/>
			<point x="598" y="-43"/>
			<point x="587" y="178" type="curve" smooth="yes"/>
			<point x="583" y="253"/>
			<point x="576" y="290"/>
			<point x="560" y="352" type="curve"/>
			<point x="450" y="336" type="line"/>
			<point x="540" y="91"/>
			<point x="518" y="-192"/>
			<point x="315" y="-192" type="curve" smooth="yes"/>
			<point x="220" y="-192"/>
			<point x="136" y="-139"/>
			<point x="136" y="-26" type="curve" smooth="yes"/>
			<point x="136" y="59"/>
			<point x="186" y="135"/>
			<point x="264" y="184" type="curve"/>
			<point x="213" y="262" type="line"/>
			<point x="120" y="198"/>
			<point x="60" y="108"/>
			<point x="60" y="-6" type="curve" smooth="yes"/>
			<point x="60" y="-136"/>
			<point x="158" y="-247"/>
		</contour>
		<contour>
			<point x="682" y="0" type="curve"/>
			<point x="702" y="25" type="line"/>
			<point x="682" y="50" type="line"/>
			<point x="628" y="50"/>
			<point x="592" y="96"/>
			<point x="587" y="178" type="curve"/>
			<point x="524" y="202" type="line"/>
			<point x="524" y="50"/>
			<point x="600" y="0"/>
		</contour>
	</outline>
</glyph>
<glyph name="uni06BE.fina.salt" format="2">
	<advance width="540"/>
	<anchor x="320" y="-318" name="bottom"/>
	<anchor x="320" y="550" name="top"/>
	<outline>
		<contour>
			<point x="387" y="-260" type="curve"/>
			<point x="433" y="-177" type="line"/>
			<point x="386" y="-151" type="line"/>
			<point x="293" y="-118"/>
			<point x="185" y="-5"/>
			<point x="185" y="133" type="curve" smooth="yes"/>
			<point x="185" y="235"/>
			<point x="255" y="305"/>
			<point x="327" y="305" type="curve" smooth="yes"/>
			<point x="379" y="305"/>
			<point x="404" y="265"/>
			<point x="404" y="229" type="curve" smooth="yes"/>
			<point x="404" y="157"/>
			<point x="302" y="50"/>
			<point x="69" y="96" type="curve"/>
			<point x="50" y="-4" type="line"/>
			<point x="291" y="-39"/>
			<point x="463" y="73"/>
			<point x="464" y="247" type="curve" smooth="yes"/>
			<point x="464" y="345"/>
			<point x="420" y="410"/>
			<point x="330" y="410" type="curve" smooth="yes"/>
			<point x="209" y="410"/>
			<point x="130" y="287"/>
			<point x="130" y="133" type="curve" smooth="yes"/>
			<point x="130" y="-110"/>
			<point x="303" y="-245"/>
		</contour>
		<contour>
			<point x="364" y="-204" type="curve"/>
			<point x="433" y="-177" type="line"/>
			<point x="415" y="-95"/>
			<point x="436" y="0"/>
			<point x="540" y="0" type="curve"/>
			<point x="560" y="25" type="line"/>
			<point x="540" y="50" type="line"/>
			<point x="406" y="50"/>
			<point x="337" y="-52"/>
		</contour>
	</outline>
</glyph>
<glyph name="uni06BE.medi" format="2">
	<advance width="590"/>
	<anchor x="263" y="-100" name="bottom"/>
	<anchor x="266" y="550" name="top"/>
	<outline>
		<contour>
			<point x="299" y="-10" type="curve" smooth="yes"/>
			<point x="429" y="-10"/>
			<point x="490" y="63"/>
			<point x="490" y="151" type="curve" smooth="yes"/>
			<point x="490" y="298"/>
			<point x="334" y="400"/>
			<point x="145" y="448" type="curve"/>
			<point x="88" y="357" type="line"/>
			<point x="268" y="324"/>
			<point x="407" y="248"/>
			<point x="407" y="144" type="curve" smooth="yes"/>
			<point x="407" y="78"/>
			<point x="352" y="50"/>
			<point x="301" y="50" type="curve" smooth="yes"/>
			<point x="206" y="50"/>
			<point x="111" y="111"/>
			<point x="111" y="210" type="curve" smooth="yes"/>
			<point x="111" y="264"/>
			<point x="138" y="303"/>
			<point x="179" y="303" type="curve" smooth="yes"/>
			<point x="214" y="303"/>
			<point x="242" y="273"/>
			<point x="242" y="217" type="curve" smooth="yes"/>
			<point x="242" y="106"/>
			<point x="112" y="50"/>
			<point x="0" y="50" type="curve"/>
			<point x="0" y="0" type="line"/>
			<point x="171" y="0"/>
			<point x="327" y="81"/>
			<point x="327" y="223" type="curve" smooth="yes"/>
			<point x="327" y="316"/>
			<point x="258" y="369"/>
			<point x="196" y="369" type="curve" smooth="yes"/>
			<point x="126" y="369"/>
			<point x="57" y="311"/>
			<point x="57" y="205" type="curve" smooth="yes"/>
			<point x="57" y="91"/>
			<point x="158" y="-10"/>
		</contour>
		<contour>
			<point x="590" y="0" type="curve"/>
			<point x="610" y="25" type="line"/>
			<point x="590" y="50" type="line"/>
			<point x="540" y="50"/>
			<point x="490" y="74"/>
			<point x="490" y="151" type="curve"/>
			<point x="452" y="202" type="line"/>
			<point x="422" y="202" type="line"/>
			<point x="422" y="45"/>
			<point x="518" y="0"/>
		</contour>
	</outline>
</glyph>
<glyph name="uni06C1.fina" format="2">
	<advance width="580"/>
	<anchor x="342" y="-100" name="bottom"/>
	<anchor x="342" y="550" name="top"/>
	<outline>
		<contour>
			<point x="40" y="40" type="curve"/>
			<point x="116" y="-13" type="line"/>
			<point x="192" y="120"/>
			<point x="230" y="305"/>
			<point x="319" y="305" type="curve" smooth="yes"/>
			<point x="408" y="305"/>
			<point x="319" y="0"/>
			<point x="600" y="0" type="curve"/>
			<point x="620" y="25" type="line"/>
			<point x="600" y="50" type="line"/>
			<point x="445" y="51"/>
			<point x="503" y="385"/>
			<point x="374" y="385" type="curve" smooth="yes"/>
			<point x="216" y="385"/>
			<point x="116" y="175"/>
		</contour>
	</outline>
</glyph>
<glyph name="uni06C1.init" format="2">
	<advance width="310"/>
	<anchor x="172" y="-358" name="bottom"/>
	<anchor x="172" y="550" name="top"/>
	<outline>
		<component base="uni066E.init"/>
		<contour>
			<point x="249" y="-289" type="curve"/>
			<point x="223" y="-202" type="line"/>
			<point x="182" y="-219"/>
			<point x="154" y="-221"/>
			<point x="137" y="-205" type="curve" smooth="yes"/>
			<point x="117" y="-186"/>
			<point x="115" y="-138"/>
			<point x="128" y="-59" type="curve"/>
			<point x="74" y="-46" type="line"/>
			<point x="35" y="-188"/>
			<point x="48" y="-263"/>
			<point x="95" y="-293" type="curve" smooth="yes"/>
			<point x="130" y="-316"/>
			<point x="184" y="-312"/>
		</contour>
	</outline>
</glyph>
<glyph name="uni06CE.medi" format="2">
	<advance width="350"/>
	<anchor x="177" y="-230" name="bottom"/>
	<anchor x="172" y="650" name="top"/>
	<outline>
		<contour>
			<point x="0" y="50" type="curve"/>
			<point x="0" y="0" type="line"/>
			<point x="183" y="0"/>
			<point x="258" y="123"/>
			<point x="240" y="331" type="curve"/>
			<point x="130" y="317" type="line"/>
			<point x="161" y="139"/>
			<point x="113" y="50"/>
		</contour>
		<component base="caron.ar" xOffset="24" yOffset="-154"/>
		<component base="twodotshorizontalbelow-ar" xOffset="120" yOffset="-41"/>
	</outline>
</glyph>
<glyph name="uniFDF2" format="2">
	<advance width="1481"/>
	<anchor x="1347" y="-50" name="bottom"/>
	<anchor x="1009" y="-50" name="bottom_1"/>
	<anchor x="643" y="-50" name="bottom_2"/>
	<anchor x="281" y="-50" name="bottom_3"/>
	<anchor x="550" y="0" name="caret_1"/>
	<anchor x="906" y="0" name="caret_2"/>
	<anchor x="1225" y="0" name="caret_3"/>
	<anchor x="1347" y="761" name="top"/>
	<anchor x="1038" y="739" name="top_1"/>
	<anchor x="699" y="641" name="top_2"/>
	<anchor x="309" y="483" name="top_3"/>
	<anchor x="307" y="460" name="topdiacritic"/>
	<outline>
		<contour>
			<point x="890" y="50" type="curve"/>
			<point x="890" y="0" type="line"/>
			<point x="1064" y="0"/>
			<point x="1116" y="148"/>
			<point x="1122" y="269" type="curve" smooth="yes"/>
			<point x="1129" y="400"/>
			<point x="1120" y="533"/>
			<point x="1100" y="723" type="curve"/>
			<point x="990" y="706" type="line"/>
			<point x="1018" y="575"/>
			<point x="1043" y="392"/>
			<point x="1042" y="260" type="curve" smooth="yes"/>
			<point x="1040" y="118"/>
			<point x="990" y="50"/>
		</contour>
		<contour>
			<point x="190" y="14" type="curve" smooth="yes"/>
			<point x="309" y="14"/>
			<point x="372" y="141"/>
			<point x="372" y="219" type="curve"/>
			<point x="333" y="235" type="line"/>
			<point x="333" y="180"/>
			<point x="283" y="118"/>
			<point x="221" y="118" type="curve" smooth="yes"/>
			<point x="179" y="118"/>
			<point x="150" y="144"/>
			<point x="150" y="192" type="curve" smooth="yes"/>
			<point x="150" y="253"/>
			<point x="201" y="366"/>
			<point x="366" y="366" type="curve"/>
			<point x="364" y="417" type="line"/>
			<point x="247" y="417"/>
			<point x="60" y="347"/>
			<point x="60" y="159" type="curve" smooth="yes"/>
			<point x="60" y="65"/>
			<point x="133" y="14"/>
		</contour>
		<contour>
			<point x="540" y="0" type="curve"/>
			<point x="560" y="25" type="line"/>
			<point x="540" y="50" type="line"/>
			<point x="492" y="50"/>
			<point x="426" y="75"/>
			<point x="426" y="185" type="curve" smooth="yes"/>
			<point x="426" y="257"/>
			<point x="436" y="375"/>
			<point x="447" y="450" type="curve"/>
			<point x="337" y="432" type="line"/>
			<point x="334" y="354"/>
			<point x="333" y="309"/>
			<point x="333" y="235" type="curve" smooth="yes"/>
			<point x="333" y="94"/>
			<point x="389" y="0"/>
		</contour>
		<contour>
			<point x="890" y="0" type="curve"/>
			<point x="910" y="25" type="line"/>
			<point x="890" y="50" type="line"/>
			<point x="823" y="50"/>
			<point x="771" y="101"/>
			<point x="771" y="202" type="curve"/>
			<point x="712" y="202" type="line"/>
			<point x="712" y="50"/>
			<point x="798" y="0"/>
		</contour>
		<contour>
			<point x="540" y="50" type="curve"/>
			<point x="540" y="0" type="line"/>
			<point x="658" y="0"/>
			<point x="747" y="74"/>
			<point x="747" y="172" type="curve"/>
			<point x="771" y="202" type="line"/>
			<point x="773" y="385"/>
			<point x="771" y="452"/>
			<point x="758" y="583" type="curve"/>
			<point x="648" y="562" type="line"/>
			<point x="677" y="422"/>
			<point x="687" y="347"/>
			<point x="687" y="229" type="curve" smooth="yes"/>
			<point x="687" y="118"/>
			<point x="640" y="50"/>
		</contour>
		<component base="uni06510670" xOffset="645" yOffset="22"/>
		<component base="uni0627" xOffset="1208"/>
	</outline>
</glyph>
